<svg xmlns="http://www.w3.org/2000/svg" xmlns:xlink="http://www.w3.org/1999/xlink" width="500" zoomAndPan="magnify" viewBox="0 0 375 374.999991" height="500" preserveAspectRatio="xMidYMid meet" version="1.2"><defs><clipPath id="819a4a77e7"><path d="M 2.929688 3 L 372.070312 3 L 372.070312 372 L 2.929688 372 Z M 2.929688 3 "/></clipPath><clipPath id="d466089c92"><path d="M 193.800781 5.328125 L 199.390625 10.058594 C 203.191406 13.273438 208.570312 13.835938 212.957031 11.480469 L 219.429688 8.003906 C 223.625 5.75 228.835938 6.855469 231.75 10.617188 L 236.21875 16.386719 C 239.269531 20.320312 244.414062 21.988281 249.191406 20.59375 L 256.265625 18.523438 C 260.832031 17.191406 265.699219 19.355469 267.765625 23.640625 L 270.925781 30.191406 C 273.085938 34.675781 277.773438 37.375 282.734375 36.996094 L 290.089844 36.4375 C 294.835938 36.074219 299.144531 39.203125 300.269531 43.824219 L 301.988281 50.875 C 303.164062 55.707031 307.1875 59.320312 312.117188 59.976562 L 319.429688 60.949219 C 324.144531 61.578125 327.707031 65.53125 327.839844 70.285156 L 328.046875 77.53125 C 328.1875 82.5 331.371094 86.871094 336.058594 88.53125 L 343 90.992188 C 347.476562 92.582031 350.140625 97.1875 349.28125 101.863281 L 347.964844 108.996094 C 347.066406 113.882812 349.269531 118.820312 353.507812 121.417969 L 359.769531 125.25 C 363.820312 127.734375 365.464844 132.792969 363.648438 137.183594 L 360.867188 143.894531 C 358.96875 148.488281 360.09375 153.773438 363.699219 157.191406 L 369.011719 162.226562 C 372.460938 165.492188 373.015625 170.785156 370.324219 174.699219 L 366.191406 180.703125 C 363.375 184.796875 363.375 190.203125 366.191406 194.296875 L 370.324219 200.300781 C 373.015625 204.214844 372.460938 209.507812 369.011719 212.773438 L 363.699219 217.808594 C 360.09375 221.226562 358.96875 226.511719 360.867188 231.105469 L 363.648438 237.816406 C 365.464844 242.207031 363.820312 247.265625 359.769531 249.75 L 353.507812 253.582031 C 349.269531 256.179688 347.066406 261.117188 347.964844 266.003906 L 349.28125 273.136719 C 350.140625 277.8125 347.476562 282.417969 343 284.007812 L 336.058594 286.46875 C 331.371094 288.128906 328.1875 292.5 328.046875 297.46875 L 327.839844 304.714844 C 327.707031 309.46875 324.144531 313.421875 319.429688 314.050781 L 312.117188 315.023438 C 307.1875 315.679688 303.164062 319.292969 301.988281 324.125 L 300.269531 331.175781 C 299.144531 335.796875 294.835938 338.925781 290.089844 338.5625 L 282.734375 338.003906 C 277.773438 337.625 273.085938 340.324219 270.925781 344.808594 L 267.765625 351.359375 C 265.699219 355.648438 260.832031 357.8125 256.265625 356.476562 L 249.191406 354.40625 C 244.414062 353.011719 239.269531 354.679688 236.21875 358.613281 L 231.75 364.382812 C 228.835938 368.144531 223.625 369.25 219.429688 366.996094 L 212.957031 363.519531 C 208.570312 361.164062 203.191406 361.726562 199.390625 364.941406 L 193.800781 369.671875 C 190.164062 372.746094 184.835938 372.746094 181.199219 369.671875 L 175.609375 364.941406 C 171.808594 361.726562 166.429688 361.164062 162.042969 363.519531 L 155.570312 366.996094 C 151.375 369.25 146.164062 368.144531 143.25 364.382812 L 138.78125 358.613281 C 135.730469 354.679688 130.585938 353.011719 125.808594 354.40625 L 118.734375 356.476562 C 114.167969 357.8125 109.300781 355.648438 107.234375 351.359375 L 104.074219 344.808594 C 101.914062 340.324219 97.226562 337.625 92.265625 338.003906 L 84.910156 338.5625 C 80.164062 338.925781 75.855469 335.796875 74.730469 331.175781 L 73.011719 324.125 C 71.835938 319.292969 67.8125 315.679688 62.882812 315.023438 L 55.570312 314.050781 C 50.855469 313.421875 47.292969 309.46875 47.160156 304.714844 L 46.953125 297.46875 C 46.8125 292.5 43.628906 288.128906 38.941406 286.46875 L 32 284.007812 C 27.523438 282.417969 24.859375 277.8125 25.71875 273.136719 L 27.035156 266.003906 C 27.933594 261.117188 25.730469 256.179688 21.492188 253.582031 L 15.230469 249.75 C 11.179688 247.265625 9.53125 242.207031 11.351562 237.816406 L 14.128906 231.105469 C 16.03125 226.511719 14.90625 221.226562 11.296875 217.808594 L 5.988281 212.773438 C 2.539062 209.507812 1.984375 204.214844 4.675781 200.300781 L 8.808594 194.296875 C 11.625 190.203125 11.625 184.796875 8.808594 180.703125 L 4.675781 174.699219 C 1.984375 170.785156 2.539062 165.492188 5.988281 162.226562 L 11.296875 157.191406 C 14.90625 153.773438 16.03125 148.488281 14.128906 143.894531 L 11.351562 137.183594 C 9.53125 132.792969 11.179688 127.734375 15.230469 125.25 L 21.492188 121.417969 C 25.730469 118.820312 27.933594 113.882812 27.035156 108.996094 L 25.71875 101.863281 C 24.859375 97.1875 27.523438 92.582031 32 90.992188 L 38.941406 88.53125 C 43.628906 86.871094 46.8125 82.5 46.953125 77.53125 L 47.160156 70.285156 C 47.292969 65.53125 50.855469 61.578125 55.570312 60.949219 L 62.882812 59.976562 C 67.8125 59.320312 71.835938 55.707031 73.011719 50.875 L 74.730469 43.824219 C 75.855469 39.203125 80.164062 36.074219 84.910156 36.4375 L 92.265625 36.996094 C 97.226562 37.375 101.914062 34.675781 104.074219 30.191406 L 107.234375 23.640625 C 109.300781 19.355469 114.167969 17.191406 118.734375 18.523438 L 125.808594 20.59375 C 130.585938 21.988281 135.730469 20.320312 138.78125 16.386719 L 143.25 10.617188 C 146.164062 6.855469 151.375 5.75 155.570312 8.003906 L 162.042969 11.480469 C 166.429688 13.835938 171.808594 13.273438 175.609375 10.058594 L 181.199219 5.328125 C 184.835938 2.253906 190.164062 2.253906 193.800781 5.328125 Z M 193.800781 5.328125 "/></clipPath><clipPath id="33695672ba"><path d="M 21 21 L 354 21 L 354 354 L 21 354 Z M 21 21 "/></clipPath><clipPath id="5673129f0b"><path d="M 194.890625 24.246094 L 196.453125 25.5625 C 200.941406 29.363281 207.296875 30.027344 212.480469 27.246094 L 214.300781 26.265625 C 219.253906 23.605469 225.410156 24.910156 228.855469 29.359375 L 230.089844 30.953125 C 233.691406 35.601562 239.773438 37.574219 245.417969 35.921875 L 247.417969 35.339844 C 252.816406 33.761719 258.5625 36.316406 261.003906 41.382812 L 261.871094 43.183594 C 264.425781 48.476562 269.960938 51.667969 275.824219 51.222656 L 277.910156 51.0625 C 283.515625 50.636719 288.605469 54.328125 289.933594 59.792969 L 290.402344 61.714844 C 291.796875 67.425781 296.546875 71.695312 302.371094 72.472656 L 304.445312 72.746094 C 310.015625 73.488281 314.222656 78.160156 314.382812 83.773438 L 314.441406 85.75 C 314.605469 91.621094 318.367188 96.785156 323.902344 98.75 L 325.863281 99.441406 C 331.15625 101.320312 334.300781 106.761719 333.285156 112.285156 L 332.925781 114.230469 C 331.863281 120.003906 334.464844 125.839844 339.472656 128.90625 L 341.230469 129.980469 C 346.015625 132.914062 347.960938 138.890625 345.8125 144.078125 L 345.050781 145.917969 C 342.804688 151.339844 344.136719 157.589844 348.398438 161.628906 L 349.875 163.027344 C 353.949219 166.886719 354.605469 173.140625 351.425781 177.761719 L 350.285156 179.417969 C 346.957031 184.257812 346.957031 190.644531 350.285156 195.480469 L 351.425781 197.136719 C 354.605469 201.761719 353.949219 208.011719 349.875 211.871094 L 348.398438 213.273438 C 344.136719 217.3125 342.804688 223.558594 345.050781 228.984375 L 345.8125 230.824219 C 347.960938 236.007812 346.015625 241.988281 341.230469 244.917969 L 339.472656 245.992188 C 334.464844 249.058594 331.863281 254.894531 332.925781 260.667969 L 333.285156 262.613281 C 334.300781 268.136719 331.15625 273.582031 325.863281 275.457031 L 323.902344 276.152344 C 318.367188 278.113281 314.605469 283.277344 314.441406 289.152344 L 314.382812 291.125 C 314.222656 296.742188 310.015625 301.410156 304.445312 302.152344 L 302.371094 302.429688 C 296.546875 303.203125 291.796875 307.472656 290.402344 313.183594 L 289.933594 315.109375 C 288.605469 320.570312 283.515625 324.265625 277.910156 323.835938 L 275.824219 323.679688 C 269.960938 323.230469 264.425781 326.421875 261.871094 331.71875 L 261.003906 333.515625 C 258.5625 338.582031 252.8125 341.140625 247.417969 339.5625 L 245.417969 338.976562 C 239.773438 337.328125 233.691406 339.296875 230.089844 343.945312 L 228.855469 345.542969 C 225.410156 349.988281 219.253906 351.296875 214.296875 348.632812 L 212.480469 347.65625 C 207.296875 344.871094 200.941406 345.539062 196.453125 349.335938 L 194.890625 350.65625 C 190.597656 354.289062 184.304688 354.289062 180.007812 350.65625 L 178.449219 349.335938 C 173.957031 345.539062 167.601562 344.871094 162.421875 347.65625 L 160.601562 348.632812 C 155.644531 351.296875 149.492188 349.988281 146.042969 345.542969 L 144.808594 343.945312 C 141.207031 339.296875 135.128906 337.328125 129.484375 338.976562 L 127.484375 339.5625 C 122.085938 341.140625 116.335938 338.582031 113.894531 333.515625 L 113.027344 331.71875 C 110.476562 326.421875 104.9375 323.230469 99.074219 323.679688 L 96.992188 323.835938 C 91.386719 324.265625 86.296875 320.570312 84.964844 315.109375 L 84.496094 313.183594 C 83.105469 307.472656 78.351562 303.203125 72.527344 302.429688 L 70.457031 302.152344 C 64.886719 301.410156 60.675781 296.742188 60.515625 291.125 L 60.460938 289.152344 C 60.292969 283.277344 56.53125 278.113281 50.996094 276.152344 L 49.035156 275.457031 C 43.746094 273.582031 40.597656 268.136719 41.617188 262.613281 L 41.972656 260.667969 C 43.039062 254.894531 40.433594 249.058594 35.425781 245.992188 L 33.671875 244.917969 C 28.882812 241.988281 26.9375 236.007812 29.085938 230.824219 L 29.847656 228.984375 C 32.09375 223.558594 30.765625 217.3125 26.503906 213.273438 L 25.023438 211.871094 C 20.953125 208.011719 20.292969 201.761719 23.476562 197.136719 L 24.613281 195.480469 C 27.941406 190.644531 27.941406 184.257812 24.613281 179.417969 L 23.476562 177.761719 C 20.292969 173.140625 20.953125 166.886719 25.023438 163.027344 L 26.503906 161.628906 C 30.765625 157.589844 32.09375 151.339844 29.847656 145.917969 L 29.085938 144.078125 C 26.9375 138.890625 28.882812 132.914062 33.671875 129.980469 L 35.425781 128.90625 C 40.433594 125.839844 43.039062 120.003906 41.972656 114.230469 L 41.617188 112.285156 C 40.597656 106.761719 43.746094 101.320312 49.035156 99.441406 L 50.996094 98.75 C 56.53125 96.785156 60.292969 91.621094 60.460938 85.75 L 60.515625 83.773438 C 60.675781 78.160156 64.886719 73.488281 70.457031 72.746094 L 72.527344 72.472656 C 78.351562 71.695312 83.105469 67.425781 84.496094 61.714844 L 84.964844 59.792969 C 86.296875 54.328125 91.386719 50.636719 96.992188 51.0625 L 99.074219 51.222656 C 104.9375 51.667969 110.476562 48.476562 113.027344 43.183594 L 113.894531 41.382812 C 116.335938 36.316406 122.085938 33.761719 127.484375 35.339844 L 129.484375 35.921875 C 135.128906 37.574219 141.207031 35.601562 144.808594 30.953125 L 146.042969 29.359375 C 149.492188 24.910156 155.644531 23.605469 160.601562 26.265625 L 162.421875 27.246094 C 167.601562 30.027344 173.957031 29.363281 178.449219 25.5625 L 180.007812 24.246094 C 184.304688 20.609375 190.597656 20.609375 194.890625 24.246094 Z M 194.890625 24.246094 "/></clipPath></defs><g id="06b83548ec"><g clip-rule="nonzero" clip-path="url(#819a4a77e7)"><g clip-rule="nonzero" clip-path="url(#d466089c92)"><rect x="0" width="375" y="0" height="374.999991" style="fill:#8b61c2;fill-opacity:1;stroke:none;"/></g></g><g clip-rule="nonzero" clip-path="url(#33695672ba)"><g clip-rule="nonzero" clip-path="url(#5673129f0b)"><path style="fill:none;stroke-width:4;stroke-linecap:butt;stroke-linejoin:miter;stroke:#ffffff;stroke-opacity:1;stroke-miterlimit:4;" d="M 235.986164 8.39719 L 238.070074 10.152883 C 244.056104 15.221994 252.532406 16.107655 259.445777 12.398296 L 261.873531 11.090643 C 268.479525 7.542787 276.690129 9.282851 281.28515 15.216784 L 282.931438 17.342372 C 287.73485 23.542003 295.846468 26.172939 303.374592 23.969204 L 306.041996 23.192948 C 313.241904 21.088199 320.905481 24.495391 324.16159 31.252468 L 325.31816 33.654174 C 328.725352 40.713418 336.107602 44.969804 343.927473 44.375889 L 346.709492 44.162289 C 354.185518 43.594423 360.973854 48.51766 362.745177 55.806134 L 363.37035 58.369342 C 365.230239 65.986032 371.565324 71.680315 379.333098 72.71706 L 382.099488 73.081744 C 389.528625 74.071602 395.139552 80.302491 395.353153 87.788937 L 395.4313 90.425082 C 395.65011 98.255373 400.667122 105.142694 408.049372 107.76321 L 410.664679 108.68534 C 417.723923 111.191242 421.917791 118.448457 420.56325 125.815078 L 420.08395 128.409545 C 418.666892 136.109591 422.136601 143.892994 428.815532 147.982666 L 431.15993 149.415354 C 437.541903 153.327895 440.136371 161.298849 437.270995 168.217429 L 436.255089 170.671232 C 433.259469 177.902399 435.036002 186.238037 440.719866 191.624944 L 442.68916 193.490043 C 448.122954 198.6373 448.998197 206.978148 444.75744 213.141311 L 443.236186 215.350255 C 438.797459 221.805165 438.797459 230.323146 443.236186 236.772846 L 444.75744 238.98179 C 448.998197 245.150163 448.122954 253.485801 442.68916 258.633058 L 440.719866 260.503367 C 435.036002 265.890273 433.259469 274.220702 436.255089 281.457078 L 437.270995 283.910882 C 440.136371 290.824252 437.541903 298.800416 431.15993 302.707747 L 428.815532 304.140434 C 422.136601 308.230107 418.666892 316.01351 420.08395 323.713556 L 420.56325 326.308023 C 421.917791 333.674644 417.723923 340.937069 410.664679 343.43776 L 408.049372 344.3651 C 400.667122 346.980407 395.65011 353.867728 395.4313 361.703228 L 395.353153 364.334164 C 395.139552 371.825819 389.528625 378.051499 382.099488 379.041356 L 379.333098 379.41125 C 371.565324 380.442786 365.230239 386.137069 363.37035 393.753758 L 362.745177 396.322177 C 360.973854 403.605441 354.185518 408.533887 346.709492 407.960812 L 343.927473 407.752421 C 336.107602 407.153297 328.725352 411.409683 325.31816 418.474136 L 324.16159 420.870632 C 320.905481 427.627709 313.236694 431.040111 306.041996 428.935363 L 303.374592 428.153896 C 295.846468 425.955372 287.73485 428.581098 282.931438 434.780729 L 281.28515 436.911527 C 276.690129 442.84025 268.479525 444.585524 261.868322 441.032458 L 259.445777 439.730014 C 252.532406 436.015446 244.056104 436.906317 238.070074 441.970217 L 235.986164 443.731121 C 230.260622 448.576211 221.867676 448.576211 216.136925 443.731121 L 214.058225 441.970217 C 208.066985 436.906317 199.590682 436.015446 192.682522 439.730014 L 190.254767 441.032458 C 183.643564 444.585524 175.43817 442.84025 170.837939 436.911527 L 169.191651 434.780729 C 164.388239 428.581098 156.28183 425.955372 148.753707 428.153896 L 146.086303 428.935363 C 138.886395 431.040111 131.217607 427.627709 127.961499 420.870632 L 126.804929 418.474136 C 123.402946 411.409683 116.015487 407.153297 108.195616 407.752421 L 105.418806 407.960812 C 97.94278 408.533887 91.154445 403.605441 89.377912 396.322177 L 88.752739 393.753758 C 86.898059 386.137069 80.557764 380.442786 72.789991 379.41125 L 70.028811 379.041356 C 62.599673 378.051499 56.983537 371.825819 56.769936 364.334164 L 56.696999 361.703228 C 56.472979 353.867728 51.455966 346.980407 44.073716 344.3651 L 41.45841 343.43776 C 34.404376 340.937069 30.205298 333.674644 31.565049 326.308023 L 32.039138 323.713556 C 33.461407 316.01351 29.986487 308.230107 23.307557 304.140434 L 20.968368 302.707747 C 14.581185 298.800416 11.986718 290.824252 14.852094 283.910882 L 15.868 281.457078 C 18.86362 274.220702 17.092297 265.890273 11.408433 260.503367 L 9.433929 258.633058 C 4.005344 253.485801 3.124892 245.150163 7.370858 238.98179 L 8.886902 236.772846 C 13.32563 230.323146 13.32563 221.805165 8.886902 215.350255 L 7.370858 213.141311 C 3.124892 206.978148 4.005344 198.6373 9.433929 193.490043 L 11.408433 191.624944 C 17.092297 186.238037 18.86362 177.902399 15.868 170.671232 L 14.852094 168.217429 C 11.986718 161.298849 14.581185 153.327895 20.968368 149.415354 L 23.307557 147.982666 C 29.986487 143.892994 33.461407 136.109591 32.039138 128.409545 L 31.565049 125.815078 C 30.205298 118.448457 34.404376 111.191242 41.45841 108.68534 L 44.073716 107.76321 C 51.455966 105.142694 56.472979 98.255373 56.696999 90.425082 L 56.769936 87.788937 C 56.983537 80.302491 62.599673 74.071602 70.028811 73.081744 L 72.789991 72.71706 C 80.557764 71.680315 86.898059 65.986032 88.752739 58.369342 L 89.377912 55.806134 C 91.154445 48.51766 97.94278 43.594423 105.418806 44.162289 L 108.195616 44.375889 C 116.015487 44.969804 123.402946 40.713418 126.804929 33.654174 L 127.961499 31.252468 C 131.217607 24.495391 138.886395 21.088199 146.086303 23.192948 L 148.753707 23.969204 C 156.28183 26.172939 164.388239 23.542003 169.191651 17.342372 L 170.837939 15.216784 C 175.43817 9.282851 183.643564 7.542787 190.254767 11.090643 L 192.682522 12.398296 C 199.590682 16.107655 208.066985 15.221994 214.058225 10.152883 L 216.136925 8.39719 C 221.867676 3.54689 230.260622 3.54689 235.986164 8.39719 Z M 235.986164 8.39719 " transform="matrix(0.749793,0,0,0.749793,17.949948,17.949943)"/></g></g><g style="fill:#ffffff;fill-opacity:1;"><g transform="translate(51.724917, 237.972716)"><path style="stroke:none" d="M 17.90625 -0.1875 C 17.382812 0.84375 16.539062 1.78125 15.375 2.625 C 14.207031 3.46875 12.972656 3.890625 11.671875 3.890625 C 11.285156 4.023438 10.769531 4.09375 10.125 4.09375 C 9.601562 4.09375 9.082031 4.023438 8.5625 3.890625 C 8.039062 3.765625 7.265625 3.632812 6.234375 3.5 C 3.628906 2.46875 1.453125 0.878906 -0.296875 -1.265625 C -2.046875 -3.410156 -2.921875 -6.164062 -2.921875 -9.53125 C -2.921875 -10.1875 -2.882812 -10.804688 -2.8125 -11.390625 C -2.75 -11.972656 -2.65625 -12.585938 -2.53125 -13.234375 C -2.007812 -16.609375 -1.164062 -19.945312 0 -23.25 C 1.164062 -26.5625 2.398438 -29.710938 3.703125 -32.703125 C 6.160156 -38.796875 9.007812 -44.40625 12.25 -49.53125 C 15.5 -54.65625 18.878906 -59.816406 22.390625 -65.015625 C 24.203125 -67.609375 25.953125 -70.132812 27.640625 -72.59375 C 29.328125 -75.0625 30.816406 -77.722656 32.109375 -80.578125 C 32.765625 -81.222656 33.546875 -81.867188 34.453125 -82.515625 C 35.359375 -83.171875 36.332031 -83.5 37.375 -83.5 C 38.28125 -83.5 39.1875 -83.238281 40.09375 -82.71875 C 40.488281 -82.59375 40.847656 -82.429688 41.171875 -82.234375 C 41.492188 -82.035156 41.847656 -81.804688 42.234375 -81.546875 C 42.878906 -81.035156 43.625 -80.550781 44.46875 -80.09375 C 45.3125 -79.632812 45.992188 -79.082031 46.515625 -78.4375 L 46.90625 -78.4375 C 47.425781 -78.4375 47.945312 -78.273438 48.46875 -77.953125 C 48.988281 -77.628906 49.503906 -77.273438 50.015625 -76.890625 C 50.148438 -76.890625 50.21875 -76.851562 50.21875 -76.78125 C 50.21875 -76.71875 50.28125 -76.6875 50.40625 -76.6875 C 50.664062 -76.5625 50.988281 -76.269531 51.375 -75.8125 C 51.769531 -75.351562 52.226562 -74.867188 52.75 -74.359375 C 54.175781 -73.179688 54.890625 -71.6875 54.890625 -69.875 C 54.890625 -68.707031 54.566406 -67.28125 53.921875 -65.59375 C 53.523438 -64.8125 53.003906 -64.03125 52.359375 -63.25 C 51.710938 -62.476562 51.0625 -61.703125 50.40625 -60.921875 L 49.640625 -59.75 C 47.816406 -56.894531 46.160156 -54.332031 44.671875 -52.0625 C 43.179688 -49.789062 41.914062 -47.550781 40.875 -45.34375 L 41.265625 -44.765625 C 45.671875 -48.265625 49.914062 -52.023438 54 -56.046875 C 58.09375 -60.078125 62.539062 -65.078125 67.34375 -71.046875 C 68.90625 -72.992188 70.070312 -74.453125 70.84375 -75.421875 C 71.625 -76.398438 72.726562 -77.34375 74.15625 -78.25 C 74.800781 -78.507812 75.351562 -78.863281 75.8125 -79.3125 C 76.269531 -79.769531 76.820312 -80.128906 77.46875 -80.390625 C 77.726562 -80.390625 78.082031 -80.421875 78.53125 -80.484375 C 78.988281 -80.546875 79.476562 -80.578125 80 -80.578125 C 80.519531 -80.578125 81.035156 -80.546875 81.546875 -80.484375 C 82.066406 -80.421875 82.523438 -80.390625 82.921875 -80.390625 C 83.304688 -80.253906 83.660156 -80.054688 83.984375 -79.796875 C 84.304688 -79.535156 84.664062 -79.34375 85.0625 -79.21875 C 86.09375 -78.957031 87.0625 -78.726562 87.96875 -78.53125 C 88.882812 -78.34375 89.601562 -78.050781 90.125 -77.65625 C 91.414062 -76.226562 92.0625 -74.285156 92.0625 -71.828125 C 92.0625 -70.398438 91.867188 -69.097656 91.484375 -67.921875 C 90.960938 -66.367188 90.3125 -64.910156 89.53125 -63.546875 C 88.75 -62.179688 87.84375 -60.984375 86.8125 -59.953125 C 86.414062 -59.296875 86.023438 -58.644531 85.640625 -58 C 85.253906 -57.351562 84.800781 -56.707031 84.28125 -56.0625 C 80.78125 -51.125 77.597656 -46.125 74.734375 -41.0625 C 76.941406 -41.320312 78.820312 -42.066406 80.375 -43.296875 C 81.9375 -44.535156 83.367188 -45.804688 84.671875 -47.109375 C 85.316406 -47.492188 85.800781 -47.910156 86.125 -48.359375 C 86.445312 -48.816406 86.867188 -49.242188 87.390625 -49.640625 C 87.265625 -48.335938 86.941406 -47.234375 86.421875 -46.328125 C 85.898438 -45.421875 85.445312 -44.445312 85.0625 -43.40625 C 84.925781 -39.769531 83.59375 -36.617188 81.0625 -33.953125 C 78.53125 -31.296875 76.359375 -29 74.546875 -27.0625 C 73.503906 -26.664062 72.53125 -26.335938 71.625 -26.078125 C 70.71875 -25.816406 69.742188 -25.554688 68.703125 -25.296875 C 67.929688 -25.171875 67.21875 -24.976562 66.5625 -24.71875 C 65.914062 -24.457031 65.203125 -24.328125 64.421875 -24.328125 L 63.84375 -24.328125 C 63.320312 -24.585938 62.539062 -25.007812 61.5 -25.59375 C 60.46875 -26.175781 59.753906 -26.664062 59.359375 -27.0625 C 58.066406 -28.351562 56.867188 -30.359375 55.765625 -33.078125 C 54.660156 -35.804688 53.914062 -38.015625 53.53125 -39.703125 L 41.453125 -30.5625 C 38.859375 -28.613281 36.226562 -26.4375 33.5625 -24.03125 C 30.90625 -21.632812 28.863281 -19.53125 27.4375 -17.71875 C 24.84375 -14.601562 23.023438 -11.710938 21.984375 -9.046875 C 20.953125 -6.390625 19.59375 -3.4375 17.90625 -0.1875 Z M 17.90625 -0.1875 "/></g></g><g style="fill:#ffffff;fill-opacity:1;"><g transform="translate(136.971892, 237.972716)"><path style="stroke:none" d="M 41.65625 -53.71875 C 40.226562 -52.675781 38.539062 -51.25 36.59375 -49.4375 C 34.644531 -47.625 32.828125 -45.742188 31.140625 -43.796875 C 29.453125 -41.847656 28.09375 -40.160156 27.0625 -38.734375 C 23.945312 -34.316406 21.21875 -30.128906 18.875 -26.171875 C 16.539062 -22.222656 14.984375 -17.976562 14.203125 -13.4375 C 15.628906 -13.6875 16.632812 -13.941406 17.21875 -14.203125 C 17.8125 -14.460938 18.625 -14.984375 19.65625 -15.765625 C 20.820312 -16.546875 21.890625 -17.390625 22.859375 -18.296875 C 23.835938 -19.203125 24.78125 -20.109375 25.6875 -21.015625 C 30.625 -25.554688 35.554688 -31.039062 40.484375 -37.46875 C 45.410156 -43.894531 49.953125 -49.632812 54.109375 -54.6875 C 55.015625 -55.726562 55.890625 -56.703125 56.734375 -57.609375 C 57.578125 -58.515625 58.257812 -59.617188 58.78125 -60.921875 C 55.144531 -60.796875 51.929688 -60.019531 49.140625 -58.59375 C 46.359375 -57.164062 43.863281 -55.539062 41.65625 -53.71875 Z M 46.515625 16.9375 C 45.734375 13.175781 45.34375 9.738281 45.34375 6.625 C 45.34375 0.519531 46.15625 -5.125 47.78125 -10.3125 C 49.40625 -15.507812 50.609375 -20.765625 51.390625 -26.078125 C 50.609375 -25.953125 50.019531 -25.5 49.625 -24.71875 C 49.238281 -23.9375 48.722656 -23.351562 48.078125 -22.96875 C 45.609375 -20.238281 42.878906 -17.378906 39.890625 -14.390625 C 36.910156 -11.410156 33.863281 -8.625 30.75 -6.03125 C 30.363281 -5.644531 29.910156 -5.253906 29.390625 -4.859375 C 28.867188 -4.472656 28.347656 -4.019531 27.828125 -3.5 C 26.273438 -2.207031 24.363281 -0.847656 22.09375 0.578125 C 19.820312 2.003906 17.257812 2.71875 14.40625 2.71875 L 14.015625 2.71875 C 13.234375 2.71875 12.453125 2.617188 11.671875 2.421875 C 10.898438 2.234375 10.125 2.140625 9.34375 2.140625 C 6.351562 0.328125 3.625 -2.164062 1.15625 -5.34375 C -1.300781 -8.53125 -2.660156 -11.351562 -2.921875 -13.8125 C -2.921875 -14.207031 -2.953125 -14.628906 -3.015625 -15.078125 C -3.078125 -15.535156 -3.109375 -16.023438 -3.109375 -16.546875 C -3.109375 -19.660156 -2.75 -23.066406 -2.03125 -26.765625 C -1.320312 -30.460938 -0.515625 -33.414062 0.390625 -35.625 C 2.984375 -41.851562 6.03125 -47.984375 9.53125 -54.015625 C 13.039062 -60.046875 18.625 -66.4375 26.28125 -73.1875 C 27.445312 -74.09375 28.582031 -74.898438 29.6875 -75.609375 C 30.789062 -76.328125 31.796875 -77.140625 32.703125 -78.046875 C 32.960938 -78.304688 33.222656 -78.628906 33.484375 -79.015625 C 33.742188 -79.410156 33.9375 -79.671875 34.0625 -79.796875 C 34.582031 -80.316406 35.035156 -80.835938 35.421875 -81.359375 C 35.816406 -81.878906 36.46875 -82.140625 37.375 -82.140625 C 38.019531 -82.140625 39.347656 -81.976562 41.359375 -81.65625 C 43.367188 -81.332031 44.695312 -80.972656 45.34375 -80.578125 L 49.4375 -78.828125 C 50.082031 -78.441406 50.796875 -77.921875 51.578125 -77.265625 C 52.359375 -76.617188 53.070312 -76.164062 53.71875 -75.90625 C 54.757812 -75.519531 55.664062 -75.289062 56.4375 -75.21875 C 57.21875 -75.15625 58 -74.800781 58.78125 -74.15625 C 59.5625 -73.25 60.859375 -72.242188 62.671875 -71.140625 C 64.492188 -70.035156 65.921875 -69.160156 66.953125 -68.515625 C 67.859375 -69.160156 68.472656 -69.773438 68.796875 -70.359375 C 69.128906 -70.941406 69.75 -71.945312 70.65625 -73.375 C 74.675781 -81.8125 78.988281 -90.472656 83.59375 -99.359375 C 88.207031 -108.253906 92.847656 -116.65625 97.515625 -124.5625 C 98.160156 -125.738281 98.875 -126.875 99.65625 -127.96875 C 100.4375 -129.070312 101.085938 -130.207031 101.609375 -131.375 C 101.734375 -131.894531 101.957031 -132.476562 102.28125 -133.125 C 102.601562 -133.78125 102.765625 -134.367188 102.765625 -134.890625 L 102.765625 -137.03125 C 103.023438 -137.414062 103.316406 -137.769531 103.640625 -138.09375 C 103.960938 -138.414062 104.253906 -138.773438 104.515625 -139.171875 C 104.648438 -139.171875 104.75 -139.203125 104.8125 -139.265625 C 104.875 -139.328125 104.90625 -139.359375 104.90625 -139.359375 L 105.5 -139.359375 C 106.269531 -139.359375 107.140625 -139.257812 108.109375 -139.0625 C 109.085938 -138.875 109.835938 -138.78125 110.359375 -138.78125 L 110.9375 -138.78125 C 111.976562 -137.875 113.273438 -137.09375 114.828125 -136.4375 C 116.390625 -135.789062 117.820312 -135.078125 119.125 -134.296875 C 119.769531 -134.035156 120.382812 -133.773438 120.96875 -133.515625 C 121.550781 -133.265625 122.035156 -133.007812 122.421875 -132.75 C 123.335938 -132.226562 124.21875 -131.414062 125.0625 -130.3125 C 125.90625 -129.207031 126.390625 -128.132812 126.515625 -127.09375 C 126.648438 -126.707031 126.71875 -126.125 126.71875 -125.34375 C 126.71875 -123.53125 126.328125 -122.101562 125.546875 -121.0625 C 125.285156 -120.675781 124.992188 -120.351562 124.671875 -120.09375 C 124.347656 -119.832031 124.054688 -119.570312 123.796875 -119.3125 C 123.015625 -118.40625 122.296875 -117.398438 121.640625 -116.296875 C 120.992188 -115.191406 120.347656 -114.054688 119.703125 -112.890625 C 118.398438 -110.816406 116.773438 -108.222656 114.828125 -105.109375 C 112.890625 -101.992188 110.976562 -98.910156 109.09375 -95.859375 C 107.21875 -92.804688 105.628906 -90.179688 104.328125 -87.984375 C 101.734375 -83.566406 99.234375 -79.054688 96.828125 -74.453125 C 94.429688 -69.847656 92 -65.273438 89.53125 -60.734375 C 87.070312 -56.054688 84.832031 -51.285156 82.8125 -46.421875 C 80.800781 -41.554688 78.695312 -36.65625 76.5 -31.71875 L 70.84375 -16.546875 C 69.9375 -13.953125 68.960938 -11.421875 67.921875 -8.953125 C 66.890625 -6.484375 65.921875 -3.953125 65.015625 -1.359375 C 64.492188 -0.191406 63.875 1.070312 63.15625 2.4375 C 62.445312 3.800781 62.09375 5.195312 62.09375 6.625 C 61.1875 7.269531 60.601562 8.175781 60.34375 9.34375 C 60.082031 10.507812 59.820312 11.675781 59.5625 12.84375 C 59.425781 13.238281 59.226562 13.5 58.96875 13.625 C 58.71875 13.75 58.460938 13.941406 58.203125 14.203125 C 57.941406 14.460938 57.710938 14.851562 57.515625 15.375 C 57.316406 15.894531 57.085938 16.414062 56.828125 16.9375 L 56.640625 17.125 C 56.117188 17.644531 55.566406 18.195312 54.984375 18.78125 C 54.398438 19.363281 53.65625 19.65625 52.75 19.65625 L 52.15625 19.65625 C 51.382812 19.53125 50.800781 19.207031 50.40625 18.6875 C 50.019531 18.164062 49.503906 17.773438 48.859375 17.515625 C 48.460938 17.390625 48.132812 17.328125 47.875 17.328125 C 47.625 17.328125 47.171875 17.195312 46.515625 16.9375 Z M 46.515625 16.9375 "/></g></g><g style="fill:#ffffff;fill-opacity:1;"><g transform="translate(225.33285, 237.972716)"><path style="stroke:none" d="M 41.84375 -55.46875 C 43.789062 -56.507812 45.445312 -57.453125 46.8125 -58.296875 C 48.175781 -59.140625 49.703125 -60.015625 51.390625 -60.921875 C 52.816406 -61.960938 54.175781 -62.96875 55.46875 -63.9375 C 56.769531 -64.914062 58.195312 -65.859375 59.75 -66.765625 C 61.570312 -68.191406 63.519531 -69.710938 65.59375 -71.328125 C 67.664062 -72.953125 69.9375 -75.128906 72.40625 -77.859375 L 72.984375 -78.25 C 73.765625 -78.769531 74.578125 -79.15625 75.421875 -79.40625 C 76.265625 -79.664062 77.722656 -79.796875 79.796875 -79.796875 C 80.453125 -79.796875 81.164062 -79.796875 81.9375 -79.796875 C 82.71875 -79.796875 83.5625 -79.734375 84.46875 -79.609375 L 84.859375 -79.609375 C 85.515625 -79.609375 86.195312 -79.671875 86.90625 -79.796875 C 87.625 -79.929688 88.238281 -80 88.75 -80 C 89.269531 -80 89.597656 -79.929688 89.734375 -79.796875 C 90.503906 -79.410156 91.375 -79.148438 92.34375 -79.015625 C 93.320312 -78.890625 94.265625 -78.566406 95.171875 -78.046875 C 95.953125 -77.523438 96.734375 -76.484375 97.515625 -74.921875 C 98.296875 -73.367188 98.6875 -71.816406 98.6875 -70.265625 C 98.6875 -68.578125 98.164062 -67.28125 97.125 -66.375 C 96.601562 -65.851562 95.921875 -65.429688 95.078125 -65.109375 C 94.234375 -64.785156 93.425781 -64.425781 92.65625 -64.03125 C 87.59375 -61.175781 82.59375 -58.644531 77.65625 -56.4375 C 72.726562 -54.238281 67.992188 -52.097656 63.453125 -50.015625 C 60.597656 -48.722656 58.390625 -47.785156 56.828125 -47.203125 C 55.273438 -46.617188 53.394531 -45.9375 51.1875 -45.15625 C 51.320312 -41.394531 51.84375 -37.597656 52.75 -33.765625 C 53.65625 -29.941406 54.628906 -26.34375 55.671875 -22.96875 C 55.929688 -21.28125 56.445312 -19.492188 57.21875 -17.609375 C 58 -15.734375 58.648438 -13.882812 59.171875 -12.0625 C 59.296875 -11.414062 59.488281 -10.734375 59.75 -10.015625 C 60.007812 -9.304688 60.335938 -8.820312 60.734375 -8.5625 C 60.859375 -8.5625 60.953125 -8.53125 61.015625 -8.46875 C 61.078125 -8.40625 61.175781 -8.375 61.3125 -8.375 C 62.09375 -8.375 63.097656 -8.796875 64.328125 -9.640625 C 65.554688 -10.484375 66.5 -11.097656 67.15625 -11.484375 C 69.351562 -12.910156 71.066406 -14.429688 72.296875 -16.046875 C 73.535156 -17.671875 74.609375 -19.65625 75.515625 -22 C 75.773438 -21.863281 75.90625 -21.472656 75.90625 -20.828125 L 75.90625 -18.109375 C 75.90625 -17.453125 76.097656 -16.832031 76.484375 -16.25 C 76.878906 -15.664062 77.078125 -14.851562 77.078125 -13.8125 L 77.078125 -13.4375 C 76.953125 -10.707031 76.238281 -8.335938 74.9375 -6.328125 C 73.632812 -4.316406 72.46875 -2.53125 71.4375 -0.96875 C 70.914062 -0.445312 70.425781 0.0351562 69.96875 0.484375 C 69.519531 0.941406 69.035156 1.300781 68.515625 1.5625 C 68.378906 1.6875 68.082031 1.8125 67.625 1.9375 C 67.175781 2.070312 66.757812 2.269531 66.375 2.53125 C 65.976562 2.65625 65.585938 2.847656 65.203125 3.109375 C 64.816406 3.367188 64.492188 3.5 64.234375 3.5 C 63.710938 3.632812 63.125 3.734375 62.46875 3.796875 C 61.820312 3.859375 61.175781 3.890625 60.53125 3.890625 C 58.457031 3.890625 56.578125 3.53125 54.890625 2.8125 C 53.203125 2.101562 51.707031 1.296875 50.40625 0.390625 C 46.78125 -3.367188 43.632812 -7.128906 40.96875 -10.890625 C 38.3125 -14.660156 35.6875 -19.140625 33.09375 -24.328125 C 32.175781 -26.148438 31.425781 -27.898438 30.84375 -29.578125 C 30.257812 -31.265625 29.515625 -32.953125 28.609375 -34.640625 C 25.367188 -29.835938 22.382812 -25.585938 19.65625 -21.890625 C 16.9375 -18.191406 13.953125 -14.007812 10.703125 -9.34375 C 9.660156 -7.914062 8.910156 -6.519531 8.453125 -5.15625 C 8.003906 -3.789062 7.265625 -2.332031 6.234375 -0.78125 C 5.578125 -0.132812 4.925781 0.578125 4.28125 1.359375 C 3.632812 2.140625 2.984375 3.050781 2.328125 4.09375 C 1.035156 5 -0.515625 5.773438 -2.328125 6.421875 C -4.148438 7.066406 -6.097656 7.390625 -8.171875 7.390625 L -9.53125 7.390625 C -10.050781 6.742188 -10.472656 6.0625 -10.796875 5.34375 C -11.128906 4.632812 -11.296875 3.695312 -11.296875 2.53125 L -11.296875 1.75 C -11.035156 -1.226562 -10.414062 -4.207031 -9.4375 -7.1875 C -8.46875 -10.175781 -7.398438 -12.972656 -6.234375 -15.578125 C -5.578125 -17.390625 -4.632812 -19.625 -3.40625 -22.28125 C -2.175781 -24.945312 -0.914062 -27.609375 0.375 -30.265625 C 1.675781 -32.921875 2.71875 -35.03125 3.5 -36.59375 C 5.96875 -41.394531 8.46875 -46.160156 11 -50.890625 C 13.53125 -55.628906 16.222656 -60.140625 19.078125 -64.421875 L 20.625 -66.765625 C 23.226562 -70.785156 25.859375 -74.867188 28.515625 -79.015625 C 31.171875 -83.171875 33.734375 -87.128906 36.203125 -90.890625 C 37.109375 -92.316406 38.5 -94.457031 40.375 -97.3125 C 42.257812 -100.175781 44.144531 -103.097656 46.03125 -106.078125 C 47.914062 -109.066406 49.242188 -111.335938 50.015625 -112.890625 C 50.929688 -114.054688 52.066406 -115.613281 53.421875 -117.5625 C 54.785156 -119.507812 56.019531 -121.488281 57.125 -123.5 C 58.226562 -125.507812 58.78125 -127.097656 58.78125 -128.265625 C 59.300781 -129.304688 60.238281 -130.378906 61.59375 -131.484375 C 62.957031 -132.585938 64.226562 -133.394531 65.40625 -133.90625 C 65.65625 -134.039062 66.039062 -134.109375 66.5625 -134.109375 C 67.21875 -134.109375 67.800781 -134.007812 68.3125 -133.8125 C 68.832031 -133.625 69.289062 -133.460938 69.6875 -133.328125 C 69.945312 -133.328125 70.53125 -133.328125 71.4375 -133.328125 C 72.34375 -133.328125 72.859375 -133.265625 72.984375 -133.140625 C 73.503906 -133.003906 73.957031 -132.675781 74.34375 -132.15625 C 74.738281 -131.632812 75.195312 -131.375 75.71875 -131.375 C 78.050781 -131.125 80.125 -130.476562 81.9375 -129.4375 C 83.757812 -128.394531 85.0625 -126.96875 85.84375 -125.15625 C 86.226562 -124.632812 86.421875 -123.851562 86.421875 -122.8125 C 86.421875 -121.519531 86.160156 -120.351562 85.640625 -119.3125 C 85.378906 -118.40625 84.796875 -117.367188 83.890625 -116.203125 C 82.984375 -115.035156 82.007812 -113.929688 80.96875 -112.890625 C 79.675781 -110.816406 77.765625 -107.992188 75.234375 -104.421875 C 72.703125 -100.859375 70.171875 -97.289062 67.640625 -93.71875 C 65.109375 -90.144531 63.128906 -87.320312 61.703125 -85.25 C 58.585938 -80.582031 55.113281 -75.585938 51.28125 -70.265625 C 47.457031 -64.941406 44.3125 -60.007812 41.84375 -55.46875 Z M 41.84375 -55.46875 "/></g></g></g></svg>