<svg xmlns="http://www.w3.org/2000/svg" xmlns:xlink="http://www.w3.org/1999/xlink" width="55" zoomAndPan="magnify" viewBox="0 0 41.25 30.000001" height="40" preserveAspectRatio="xMidYMid meet" version="1.2"><defs><clipPath id="8b640c102b"><path d="M 0.300781 9 L 15 9 L 15 22 L 0.300781 22 Z M 0.300781 9 "/></clipPath><clipPath id="6967017c23"><path d="M 24 1 L 40.222656 1 L 40.222656 23 L 24 23 Z M 24 1 "/></clipPath></defs><g id="cb672ff1c8"><g clip-rule="nonzero" clip-path="url(#8b640c102b)"><g style="fill:#ffffff;fill-opacity:1;"><g transform="translate(1.064238, 21.14832)"><path style="stroke:none" d="M 2.578125 -0.03125 C 2.503906 0.125 2.382812 0.257812 2.21875 0.375 C 2.050781 0.5 1.875 0.5625 1.6875 0.5625 C 1.625 0.582031 1.546875 0.59375 1.453125 0.59375 C 1.378906 0.59375 1.304688 0.582031 1.234375 0.5625 C 1.160156 0.539062 1.046875 0.519531 0.890625 0.5 C 0.523438 0.351562 0.21875 0.128906 -0.03125 -0.171875 C -0.289062 -0.484375 -0.421875 -0.882812 -0.421875 -1.375 C -0.421875 -1.46875 -0.414062 -1.554688 -0.40625 -1.640625 C -0.394531 -1.722656 -0.378906 -1.8125 -0.359375 -1.90625 C -0.285156 -2.394531 -0.164062 -2.875 0 -3.34375 C 0.164062 -3.820312 0.34375 -4.273438 0.53125 -4.703125 C 0.882812 -5.585938 1.296875 -6.394531 1.765625 -7.125 C 2.234375 -7.863281 2.71875 -8.609375 3.21875 -9.359375 C 3.476562 -9.734375 3.726562 -10.097656 3.96875 -10.453125 C 4.21875 -10.804688 4.4375 -11.191406 4.625 -11.609375 C 4.71875 -11.703125 4.828125 -11.796875 4.953125 -11.890625 C 5.085938 -11.984375 5.226562 -12.03125 5.375 -12.03125 C 5.507812 -12.03125 5.644531 -11.988281 5.78125 -11.90625 C 5.832031 -11.894531 5.878906 -11.875 5.921875 -11.84375 C 5.972656 -11.8125 6.023438 -11.78125 6.078125 -11.75 C 6.171875 -11.675781 6.28125 -11.601562 6.40625 -11.53125 C 6.53125 -11.46875 6.628906 -11.390625 6.703125 -11.296875 L 6.75 -11.296875 C 6.832031 -11.296875 6.910156 -11.269531 6.984375 -11.21875 C 7.054688 -11.175781 7.128906 -11.128906 7.203125 -11.078125 C 7.222656 -11.078125 7.234375 -11.070312 7.234375 -11.0625 C 7.234375 -11.050781 7.242188 -11.046875 7.265625 -11.046875 C 7.296875 -11.023438 7.335938 -10.976562 7.390625 -10.90625 C 7.453125 -10.84375 7.519531 -10.773438 7.59375 -10.703125 C 7.800781 -10.535156 7.90625 -10.320312 7.90625 -10.0625 C 7.90625 -9.894531 7.859375 -9.691406 7.765625 -9.453125 C 7.710938 -9.335938 7.640625 -9.222656 7.546875 -9.109375 C 7.453125 -8.992188 7.359375 -8.882812 7.265625 -8.78125 L 7.140625 -8.609375 C 6.878906 -8.191406 6.640625 -7.820312 6.421875 -7.5 C 6.210938 -7.175781 6.035156 -6.851562 5.890625 -6.53125 L 5.9375 -6.453125 C 6.570312 -6.953125 7.179688 -7.488281 7.765625 -8.0625 C 8.359375 -8.644531 9.003906 -9.367188 9.703125 -10.234375 C 9.921875 -10.515625 10.085938 -10.722656 10.203125 -10.859375 C 10.316406 -11.003906 10.476562 -11.140625 10.6875 -11.265625 C 10.769531 -11.304688 10.84375 -11.359375 10.90625 -11.421875 C 10.976562 -11.484375 11.0625 -11.535156 11.15625 -11.578125 C 11.195312 -11.578125 11.25 -11.582031 11.3125 -11.59375 C 11.375 -11.601562 11.441406 -11.609375 11.515625 -11.609375 C 11.597656 -11.609375 11.675781 -11.601562 11.75 -11.59375 C 11.820312 -11.582031 11.882812 -11.578125 11.9375 -11.578125 C 12 -11.554688 12.050781 -11.523438 12.09375 -11.484375 C 12.144531 -11.453125 12.195312 -11.425781 12.25 -11.40625 C 12.394531 -11.375 12.53125 -11.34375 12.65625 -11.3125 C 12.789062 -11.28125 12.898438 -11.238281 12.984375 -11.1875 C 13.171875 -10.976562 13.265625 -10.695312 13.265625 -10.34375 C 13.265625 -10.132812 13.234375 -9.945312 13.171875 -9.78125 C 13.097656 -9.5625 13.003906 -9.351562 12.890625 -9.15625 C 12.773438 -8.957031 12.644531 -8.785156 12.5 -8.640625 C 12.445312 -8.546875 12.390625 -8.453125 12.328125 -8.359375 C 12.273438 -8.265625 12.210938 -8.171875 12.140625 -8.078125 C 11.628906 -7.367188 11.171875 -6.648438 10.765625 -5.921875 C 11.078125 -5.953125 11.34375 -6.054688 11.5625 -6.234375 C 11.789062 -6.410156 12 -6.59375 12.1875 -6.78125 C 12.28125 -6.84375 12.347656 -6.90625 12.390625 -6.96875 C 12.441406 -7.03125 12.507812 -7.085938 12.59375 -7.140625 C 12.570312 -6.960938 12.519531 -6.804688 12.4375 -6.671875 C 12.363281 -6.535156 12.300781 -6.394531 12.25 -6.25 C 12.226562 -5.726562 12.035156 -5.273438 11.671875 -4.890625 C 11.304688 -4.503906 10.992188 -4.171875 10.734375 -3.890625 C 10.585938 -3.835938 10.445312 -3.789062 10.3125 -3.75 C 10.1875 -3.71875 10.046875 -3.679688 9.890625 -3.640625 C 9.785156 -3.617188 9.6875 -3.585938 9.59375 -3.546875 C 9.5 -3.515625 9.394531 -3.5 9.28125 -3.5 L 9.1875 -3.5 C 9.113281 -3.539062 9.003906 -3.601562 8.859375 -3.6875 C 8.710938 -3.769531 8.609375 -3.835938 8.546875 -3.890625 C 8.359375 -4.078125 8.1875 -4.367188 8.03125 -4.765625 C 7.875 -5.160156 7.765625 -5.476562 7.703125 -5.71875 L 5.96875 -4.40625 C 5.59375 -4.125 5.210938 -3.804688 4.828125 -3.453125 C 4.453125 -3.109375 4.160156 -2.804688 3.953125 -2.546875 C 3.578125 -2.097656 3.3125 -1.679688 3.15625 -1.296875 C 3.007812 -0.921875 2.816406 -0.5 2.578125 -0.03125 Z M 2.578125 -0.03125 "/></g></g></g><g style="fill:#ffffff;fill-opacity:1;"><g transform="translate(13.339298, 21.14832)"><path style="stroke:none" d="M 6 -7.734375 C 5.789062 -7.585938 5.546875 -7.382812 5.265625 -7.125 C 4.984375 -6.863281 4.722656 -6.59375 4.484375 -6.3125 C 4.242188 -6.03125 4.046875 -5.785156 3.890625 -5.578125 C 3.441406 -4.941406 3.050781 -4.335938 2.71875 -3.765625 C 2.382812 -3.203125 2.160156 -2.59375 2.046875 -1.9375 C 2.253906 -1.96875 2.398438 -2.003906 2.484375 -2.046875 C 2.566406 -2.085938 2.679688 -2.160156 2.828125 -2.265625 C 2.992188 -2.378906 3.144531 -2.5 3.28125 -2.625 C 3.425781 -2.757812 3.566406 -2.894531 3.703125 -3.03125 C 4.410156 -3.6875 5.117188 -4.472656 5.828125 -5.390625 C 6.535156 -6.316406 7.191406 -7.144531 7.796875 -7.875 C 7.921875 -8.019531 8.046875 -8.160156 8.171875 -8.296875 C 8.296875 -8.429688 8.394531 -8.59375 8.46875 -8.78125 C 7.945312 -8.757812 7.484375 -8.644531 7.078125 -8.4375 C 6.671875 -8.226562 6.3125 -7.992188 6 -7.734375 Z M 6.703125 2.4375 C 6.585938 1.894531 6.53125 1.398438 6.53125 0.953125 C 6.53125 0.078125 6.644531 -0.734375 6.875 -1.484375 C 7.113281 -2.234375 7.289062 -2.988281 7.40625 -3.75 C 7.289062 -3.738281 7.203125 -3.675781 7.140625 -3.5625 C 7.085938 -3.445312 7.015625 -3.363281 6.921875 -3.3125 C 6.566406 -2.914062 6.175781 -2.5 5.75 -2.0625 C 5.320312 -1.632812 4.878906 -1.238281 4.421875 -0.875 C 4.367188 -0.8125 4.304688 -0.75 4.234375 -0.6875 C 4.160156 -0.632812 4.085938 -0.570312 4.015625 -0.5 C 3.785156 -0.3125 3.503906 -0.117188 3.171875 0.078125 C 2.847656 0.285156 2.484375 0.390625 2.078125 0.390625 L 2.015625 0.390625 C 1.898438 0.390625 1.785156 0.375 1.671875 0.34375 C 1.566406 0.320312 1.457031 0.3125 1.34375 0.3125 C 0.914062 0.0507812 0.523438 -0.304688 0.171875 -0.765625 C -0.179688 -1.222656 -0.378906 -1.628906 -0.421875 -1.984375 C -0.421875 -2.046875 -0.425781 -2.109375 -0.4375 -2.171875 C -0.445312 -2.234375 -0.453125 -2.300781 -0.453125 -2.375 C -0.453125 -2.832031 -0.398438 -3.328125 -0.296875 -3.859375 C -0.191406 -4.390625 -0.0703125 -4.8125 0.0625 -5.125 C 0.425781 -6.019531 0.859375 -6.898438 1.359375 -7.765625 C 1.867188 -8.640625 2.675781 -9.566406 3.78125 -10.546875 C 3.945312 -10.671875 4.109375 -10.785156 4.265625 -10.890625 C 4.429688 -10.992188 4.578125 -11.109375 4.703125 -11.234375 C 4.742188 -11.273438 4.78125 -11.320312 4.8125 -11.375 C 4.851562 -11.4375 4.882812 -11.476562 4.90625 -11.5 C 4.976562 -11.570312 5.039062 -11.644531 5.09375 -11.71875 C 5.15625 -11.789062 5.25 -11.828125 5.375 -11.828125 C 5.46875 -11.828125 5.660156 -11.800781 5.953125 -11.75 C 6.242188 -11.707031 6.4375 -11.660156 6.53125 -11.609375 L 7.125 -11.359375 C 7.21875 -11.296875 7.316406 -11.21875 7.421875 -11.125 C 7.535156 -11.03125 7.640625 -10.96875 7.734375 -10.9375 C 7.878906 -10.875 8.007812 -10.835938 8.125 -10.828125 C 8.238281 -10.816406 8.351562 -10.769531 8.46875 -10.6875 C 8.582031 -10.550781 8.769531 -10.398438 9.03125 -10.234375 C 9.289062 -10.078125 9.492188 -9.953125 9.640625 -9.859375 C 9.773438 -9.953125 9.863281 -10.039062 9.90625 -10.125 C 9.957031 -10.21875 10.046875 -10.363281 10.171875 -10.5625 C 10.753906 -11.78125 11.375 -13.03125 12.03125 -14.3125 C 12.695312 -15.59375 13.367188 -16.800781 14.046875 -17.9375 C 14.140625 -18.101562 14.238281 -18.265625 14.34375 -18.421875 C 14.457031 -18.585938 14.550781 -18.753906 14.625 -18.921875 C 14.644531 -18.992188 14.675781 -19.078125 14.71875 -19.171875 C 14.769531 -19.265625 14.796875 -19.347656 14.796875 -19.421875 L 14.796875 -19.734375 C 14.835938 -19.785156 14.878906 -19.832031 14.921875 -19.875 C 14.972656 -19.925781 15.015625 -19.984375 15.046875 -20.046875 C 15.066406 -20.046875 15.082031 -20.050781 15.09375 -20.0625 C 15.101562 -20.070312 15.109375 -20.078125 15.109375 -20.078125 L 15.1875 -20.078125 C 15.300781 -20.078125 15.425781 -20.0625 15.5625 -20.03125 C 15.707031 -20 15.816406 -19.984375 15.890625 -19.984375 L 15.984375 -19.984375 C 16.128906 -19.859375 16.3125 -19.75 16.53125 -19.65625 C 16.757812 -19.5625 16.96875 -19.457031 17.15625 -19.34375 C 17.25 -19.300781 17.335938 -19.257812 17.421875 -19.21875 C 17.503906 -19.1875 17.570312 -19.15625 17.625 -19.125 C 17.757812 -19.039062 17.882812 -18.921875 18 -18.765625 C 18.125 -18.609375 18.195312 -18.453125 18.21875 -18.296875 C 18.238281 -18.242188 18.25 -18.160156 18.25 -18.046875 C 18.25 -17.785156 18.191406 -17.582031 18.078125 -17.4375 C 18.046875 -17.375 18.003906 -17.320312 17.953125 -17.28125 C 17.910156 -17.25 17.867188 -17.21875 17.828125 -17.1875 C 17.710938 -17.050781 17.609375 -16.90625 17.515625 -16.75 C 17.421875 -16.59375 17.328125 -16.429688 17.234375 -16.265625 C 17.046875 -15.960938 16.8125 -15.585938 16.53125 -15.140625 C 16.257812 -14.691406 15.988281 -14.242188 15.71875 -13.796875 C 15.445312 -13.359375 15.21875 -12.984375 15.03125 -12.671875 C 14.65625 -12.035156 14.289062 -11.382812 13.9375 -10.71875 C 13.59375 -10.0625 13.242188 -9.40625 12.890625 -8.75 C 12.535156 -8.070312 12.210938 -7.382812 11.921875 -6.6875 C 11.640625 -5.988281 11.335938 -5.28125 11.015625 -4.5625 L 10.203125 -2.375 C 10.066406 -2.007812 9.925781 -1.644531 9.78125 -1.28125 C 9.632812 -0.925781 9.492188 -0.566406 9.359375 -0.203125 C 9.285156 -0.0234375 9.195312 0.15625 9.09375 0.34375 C 8.988281 0.539062 8.9375 0.742188 8.9375 0.953125 C 8.8125 1.046875 8.726562 1.175781 8.6875 1.34375 C 8.65625 1.507812 8.617188 1.675781 8.578125 1.84375 C 8.554688 1.90625 8.523438 1.941406 8.484375 1.953125 C 8.453125 1.972656 8.414062 2.003906 8.375 2.046875 C 8.34375 2.085938 8.3125 2.144531 8.28125 2.21875 C 8.25 2.289062 8.21875 2.363281 8.1875 2.4375 L 8.15625 2.46875 C 8.082031 2.539062 8.003906 2.617188 7.921875 2.703125 C 7.835938 2.785156 7.726562 2.828125 7.59375 2.828125 L 7.515625 2.828125 C 7.398438 2.804688 7.3125 2.757812 7.25 2.6875 C 7.195312 2.613281 7.125 2.554688 7.03125 2.515625 C 6.976562 2.503906 6.929688 2.5 6.890625 2.5 C 6.859375 2.5 6.796875 2.476562 6.703125 2.4375 Z M 6.703125 2.4375 "/></g></g><g clip-rule="nonzero" clip-path="url(#6967017c23)"><g style="fill:#8b61c2;fill-opacity:1;"><g transform="translate(26.067854, 21.14832)"><path style="stroke:none" d="M 6.03125 -7.984375 C 6.3125 -8.140625 6.546875 -8.273438 6.734375 -8.390625 C 6.929688 -8.515625 7.15625 -8.644531 7.40625 -8.78125 C 7.601562 -8.925781 7.796875 -9.066406 7.984375 -9.203125 C 8.171875 -9.347656 8.378906 -9.484375 8.609375 -9.609375 C 8.867188 -9.816406 9.144531 -10.035156 9.4375 -10.265625 C 9.738281 -10.503906 10.066406 -10.820312 10.421875 -11.21875 L 10.515625 -11.265625 C 10.628906 -11.335938 10.742188 -11.394531 10.859375 -11.4375 C 10.984375 -11.476562 11.195312 -11.5 11.5 -11.5 C 11.59375 -11.5 11.691406 -11.5 11.796875 -11.5 C 11.910156 -11.5 12.035156 -11.488281 12.171875 -11.46875 L 12.21875 -11.46875 C 12.3125 -11.46875 12.410156 -11.472656 12.515625 -11.484375 C 12.617188 -11.503906 12.707031 -11.515625 12.78125 -11.515625 C 12.851562 -11.515625 12.898438 -11.507812 12.921875 -11.5 C 13.035156 -11.4375 13.160156 -11.394531 13.296875 -11.375 C 13.441406 -11.363281 13.578125 -11.316406 13.703125 -11.234375 C 13.816406 -11.160156 13.929688 -11.007812 14.046875 -10.78125 C 14.160156 -10.5625 14.21875 -10.34375 14.21875 -10.125 C 14.21875 -9.875 14.140625 -9.6875 13.984375 -9.5625 C 13.910156 -9.488281 13.8125 -9.425781 13.6875 -9.375 C 13.570312 -9.332031 13.457031 -9.28125 13.34375 -9.21875 C 12.613281 -8.8125 11.894531 -8.445312 11.1875 -8.125 C 10.476562 -7.8125 9.796875 -7.503906 9.140625 -7.203125 C 8.722656 -7.015625 8.398438 -6.878906 8.171875 -6.796875 C 7.953125 -6.710938 7.6875 -6.613281 7.375 -6.5 C 7.394531 -5.957031 7.46875 -5.410156 7.59375 -4.859375 C 7.726562 -4.304688 7.867188 -3.789062 8.015625 -3.3125 C 8.054688 -3.0625 8.128906 -2.800781 8.234375 -2.53125 C 8.347656 -2.257812 8.441406 -1.992188 8.515625 -1.734375 C 8.535156 -1.640625 8.5625 -1.539062 8.59375 -1.4375 C 8.632812 -1.34375 8.6875 -1.273438 8.75 -1.234375 C 8.769531 -1.234375 8.78125 -1.226562 8.78125 -1.21875 C 8.789062 -1.207031 8.804688 -1.203125 8.828125 -1.203125 C 8.941406 -1.203125 9.085938 -1.257812 9.265625 -1.375 C 9.441406 -1.5 9.578125 -1.59375 9.671875 -1.65625 C 9.984375 -1.863281 10.226562 -2.082031 10.40625 -2.3125 C 10.59375 -2.539062 10.75 -2.828125 10.875 -3.171875 C 10.914062 -3.148438 10.9375 -3.09375 10.9375 -3 L 10.9375 -2.609375 C 10.9375 -2.515625 10.960938 -2.425781 11.015625 -2.34375 C 11.066406 -2.257812 11.09375 -2.140625 11.09375 -1.984375 L 11.09375 -1.9375 C 11.082031 -1.539062 10.984375 -1.195312 10.796875 -0.90625 C 10.609375 -0.613281 10.4375 -0.359375 10.28125 -0.140625 C 10.207031 -0.0664062 10.140625 0 10.078125 0.0625 C 10.015625 0.132812 9.941406 0.1875 9.859375 0.21875 C 9.847656 0.238281 9.804688 0.257812 9.734375 0.28125 C 9.671875 0.300781 9.613281 0.328125 9.5625 0.359375 C 9.5 0.378906 9.441406 0.40625 9.390625 0.4375 C 9.335938 0.476562 9.289062 0.5 9.25 0.5 C 9.175781 0.519531 9.09375 0.535156 9 0.546875 C 8.90625 0.554688 8.8125 0.5625 8.71875 0.5625 C 8.414062 0.5625 8.144531 0.507812 7.90625 0.40625 C 7.664062 0.300781 7.453125 0.1875 7.265625 0.0625 C 6.734375 -0.476562 6.273438 -1.019531 5.890625 -1.5625 C 5.515625 -2.101562 5.140625 -2.75 4.765625 -3.5 C 4.628906 -3.757812 4.519531 -4.007812 4.4375 -4.25 C 4.351562 -4.5 4.25 -4.742188 4.125 -4.984375 C 3.65625 -4.296875 3.222656 -3.6875 2.828125 -3.15625 C 2.441406 -2.625 2.015625 -2.019531 1.546875 -1.34375 C 1.390625 -1.132812 1.28125 -0.929688 1.21875 -0.734375 C 1.15625 -0.546875 1.046875 -0.335938 0.890625 -0.109375 C 0.796875 -0.015625 0.703125 0.0820312 0.609375 0.1875 C 0.515625 0.300781 0.425781 0.4375 0.34375 0.59375 C 0.15625 0.71875 -0.0664062 0.828125 -0.328125 0.921875 C -0.597656 1.015625 -0.878906 1.0625 -1.171875 1.0625 L -1.375 1.0625 C -1.445312 0.96875 -1.503906 0.867188 -1.546875 0.765625 C -1.597656 0.660156 -1.625 0.523438 -1.625 0.359375 L -1.625 0.25 C -1.582031 -0.175781 -1.492188 -0.601562 -1.359375 -1.03125 C -1.222656 -1.46875 -1.066406 -1.875 -0.890625 -2.25 C -0.796875 -2.507812 -0.660156 -2.828125 -0.484375 -3.203125 C -0.304688 -3.585938 -0.125 -3.972656 0.0625 -4.359375 C 0.25 -4.742188 0.394531 -5.046875 0.5 -5.265625 C 0.851562 -5.960938 1.210938 -6.648438 1.578125 -7.328125 C 1.941406 -8.015625 2.332031 -8.664062 2.75 -9.28125 L 2.96875 -9.609375 C 3.34375 -10.191406 3.722656 -10.78125 4.109375 -11.375 C 4.492188 -11.976562 4.863281 -12.550781 5.21875 -13.09375 C 5.34375 -13.300781 5.539062 -13.609375 5.8125 -14.015625 C 6.082031 -14.421875 6.351562 -14.835938 6.625 -15.265625 C 6.894531 -15.703125 7.085938 -16.035156 7.203125 -16.265625 C 7.335938 -16.429688 7.5 -16.648438 7.6875 -16.921875 C 7.882812 -17.203125 8.0625 -17.488281 8.21875 -17.78125 C 8.382812 -18.070312 8.46875 -18.300781 8.46875 -18.46875 C 8.539062 -18.625 8.675781 -18.78125 8.875 -18.9375 C 9.070312 -19.09375 9.253906 -19.207031 9.421875 -19.28125 C 9.453125 -19.300781 9.507812 -19.3125 9.59375 -19.3125 C 9.6875 -19.3125 9.769531 -19.296875 9.84375 -19.265625 C 9.914062 -19.242188 9.976562 -19.222656 10.03125 -19.203125 C 10.070312 -19.203125 10.15625 -19.203125 10.28125 -19.203125 C 10.414062 -19.203125 10.492188 -19.191406 10.515625 -19.171875 C 10.585938 -19.148438 10.648438 -19.101562 10.703125 -19.03125 C 10.765625 -18.957031 10.832031 -18.921875 10.90625 -18.921875 C 11.238281 -18.878906 11.535156 -18.785156 11.796875 -18.640625 C 12.054688 -18.492188 12.242188 -18.289062 12.359375 -18.03125 C 12.421875 -17.945312 12.453125 -17.832031 12.453125 -17.6875 C 12.453125 -17.5 12.410156 -17.332031 12.328125 -17.1875 C 12.296875 -17.050781 12.210938 -16.898438 12.078125 -16.734375 C 11.953125 -16.566406 11.8125 -16.410156 11.65625 -16.265625 C 11.46875 -15.960938 11.191406 -15.550781 10.828125 -15.03125 C 10.460938 -14.519531 10.097656 -14.003906 9.734375 -13.484375 C 9.367188 -12.972656 9.085938 -12.570312 8.890625 -12.28125 C 8.441406 -11.601562 7.941406 -10.878906 7.390625 -10.109375 C 6.835938 -9.347656 6.382812 -8.640625 6.03125 -7.984375 Z M 6.03125 -7.984375 "/></g></g></g></g></svg>