<svg xmlns="http://www.w3.org/2000/svg" xmlns:xlink="http://www.w3.org/1999/xlink" width="217" zoomAndPan="magnify" viewBox="0 0 162.75 30.000001" height="40" preserveAspectRatio="xMidYMid meet" version="1.2"><defs/><g id="48b537db4e"><g style="fill:#000000;fill-opacity:1;"><g transform="translate(2.114509, 22.510867)"><path style="stroke:none" d="M 10.078125 0.640625 C 9.847656 0.773438 9.625 0.71875 9.40625 0.46875 C 9.351562 0.382812 9.304688 0.300781 9.265625 0.21875 C 9.222656 0.132812 9.1875 0.0507812 9.15625 -0.03125 C 9.019531 -0.28125 8.878906 -0.53125 8.734375 -0.78125 C 8.597656 -1.039062 8.445312 -1.285156 8.28125 -1.515625 C 8.007812 -1.941406 7.773438 -2.382812 7.578125 -2.84375 C 7.378906 -3.300781 7.191406 -3.753906 7.015625 -4.203125 C 6.828125 -4.722656 6.65625 -5.253906 6.5 -5.796875 C 6.34375 -6.335938 6.175781 -6.875 6 -7.40625 C 5.945312 -7.675781 5.878906 -7.890625 5.796875 -8.046875 C 5.703125 -8.316406 5.554688 -8.332031 5.359375 -8.09375 C 5.109375 -7.789062 4.882812 -7.484375 4.6875 -7.171875 C 4.375 -6.628906 4.0625 -6.085938 3.75 -5.546875 C 3.445312 -5.015625 3.140625 -4.476562 2.828125 -3.9375 C 2.765625 -3.820312 2.695312 -3.71875 2.625 -3.625 C 2.5625 -3.539062 2.453125 -3.476562 2.296875 -3.4375 C 1.972656 -3.375 1.742188 -3.488281 1.609375 -3.78125 C 1.503906 -4 1.453125 -4.207031 1.453125 -4.40625 C 1.453125 -4.613281 1.519531 -4.828125 1.65625 -5.046875 C 2.101562 -5.703125 2.546875 -6.367188 2.984375 -7.046875 C 3.421875 -7.734375 3.851562 -8.414062 4.28125 -9.09375 L 4.609375 -9.640625 C 4.742188 -9.878906 4.742188 -10.113281 4.609375 -10.34375 C 4.523438 -10.5 4.457031 -10.671875 4.40625 -10.859375 C 4.363281 -11.054688 4.332031 -11.253906 4.3125 -11.453125 C 4.25 -11.785156 4.40625 -11.929688 4.78125 -11.890625 C 4.820312 -11.890625 4.847656 -11.878906 4.859375 -11.859375 C 5.234375 -11.703125 5.53125 -11.691406 5.75 -11.828125 C 5.976562 -11.960938 6.179688 -12.175781 6.359375 -12.46875 L 9.09375 -16.75 C 9.207031 -16.945312 9.316406 -17.0625 9.421875 -17.09375 C 9.535156 -17.125 9.675781 -17.070312 9.84375 -16.9375 L 10.203125 -16.609375 C 10.359375 -16.453125 10.441406 -16.316406 10.453125 -16.203125 C 10.472656 -16.085938 10.4375 -15.941406 10.34375 -15.765625 L 10.171875 -15.53125 C 9.859375 -15.039062 9.53125 -14.5625 9.1875 -14.09375 C 8.851562 -13.632812 8.519531 -13.171875 8.1875 -12.703125 C 8.164062 -12.660156 8.144531 -12.613281 8.125 -12.5625 C 8.101562 -12.519531 8.085938 -12.476562 8.078125 -12.4375 C 8.035156 -12.226562 8.09375 -12.148438 8.25 -12.203125 C 8.582031 -12.304688 8.90625 -12.394531 9.21875 -12.46875 C 9.539062 -12.550781 9.859375 -12.660156 10.171875 -12.796875 C 10.828125 -13.085938 11.46875 -13.414062 12.09375 -13.78125 C 12.71875 -14.15625 13.3125 -14.5625 13.875 -15 C 14.195312 -15.28125 14.507812 -15.566406 14.8125 -15.859375 C 15.113281 -16.148438 15.394531 -16.476562 15.65625 -16.84375 C 15.707031 -16.914062 15.757812 -16.988281 15.8125 -17.0625 C 15.875 -17.144531 15.925781 -17.226562 15.96875 -17.3125 C 16.195312 -17.757812 16.128906 -18.164062 15.765625 -18.53125 C 15.179688 -19.050781 14.519531 -19.351562 13.78125 -19.4375 C 13.0625 -19.53125 12.332031 -19.550781 11.59375 -19.5 C 10.851562 -19.457031 10.125 -19.328125 9.40625 -19.109375 C 9 -18.972656 8.585938 -18.84375 8.171875 -18.71875 C 7.753906 -18.59375 7.351562 -18.453125 6.96875 -18.296875 C 6.425781 -18.085938 5.894531 -17.832031 5.375 -17.53125 C 4.863281 -17.226562 4.382812 -16.882812 3.9375 -16.5 C 3.800781 -16.394531 3.664062 -16.296875 3.53125 -16.203125 C 3.40625 -16.117188 3.273438 -16.03125 3.140625 -15.9375 C 3.128906 -15.914062 3.082031 -15.925781 3 -15.96875 C 2.925781 -16.007812 2.878906 -16.046875 2.859375 -16.078125 C 2.546875 -16.796875 2.679688 -17.363281 3.265625 -17.78125 C 3.828125 -18.207031 4.40625 -18.582031 5 -18.90625 C 5.59375 -19.238281 6.21875 -19.515625 6.875 -19.734375 C 7.144531 -19.828125 7.421875 -19.914062 7.703125 -20 C 7.984375 -20.09375 8.253906 -20.175781 8.515625 -20.25 C 9.816406 -20.695312 11.109375 -20.921875 12.390625 -20.921875 C 12.640625 -20.898438 12.878906 -20.882812 13.109375 -20.875 C 13.347656 -20.863281 13.582031 -20.84375 13.8125 -20.8125 C 15.226562 -20.570312 16.296875 -19.832031 17.015625 -18.59375 C 17.347656 -18.082031 17.40625 -17.566406 17.1875 -17.046875 C 17.050781 -16.691406 16.894531 -16.335938 16.71875 -15.984375 C 16.550781 -15.640625 16.289062 -15.363281 15.9375 -15.15625 C 15.894531 -15.132812 15.863281 -15.101562 15.84375 -15.0625 C 15.832031 -15.019531 15.804688 -14.984375 15.765625 -14.953125 C 15.179688 -14.265625 14.523438 -13.675781 13.796875 -13.1875 C 13.066406 -12.707031 12.304688 -12.285156 11.515625 -11.921875 L 10.375 -11.359375 C 10.019531 -11.222656 9.660156 -11.085938 9.296875 -10.953125 C 8.941406 -10.816406 8.570312 -10.726562 8.1875 -10.6875 C 8.050781 -10.6875 7.921875 -10.675781 7.796875 -10.65625 C 7.671875 -10.644531 7.539062 -10.617188 7.40625 -10.578125 C 6.894531 -10.441406 6.59375 -10.253906 6.5 -10.015625 C 6.414062 -9.785156 6.453125 -9.46875 6.609375 -9.0625 C 6.804688 -8.570312 6.96875 -8.070312 7.09375 -7.5625 C 7.21875 -7.050781 7.347656 -6.539062 7.484375 -6.03125 C 7.742188 -5.082031 8.113281 -4.160156 8.59375 -3.265625 C 8.945312 -2.597656 9.359375 -1.957031 9.828125 -1.34375 C 9.972656 -1.164062 10.09375 -0.972656 10.1875 -0.765625 C 10.289062 -0.566406 10.382812 -0.359375 10.46875 -0.140625 C 10.582031 0.171875 10.453125 0.429688 10.078125 0.640625 Z M 10.078125 0.640625 "/></g></g><g style="fill:#000000;fill-opacity:1;"><g transform="translate(17.08368, 22.510867)"><path style="stroke:none" d="M 1.625 -3.265625 C 0.769531 -3.046875 0.160156 -3.347656 -0.203125 -4.171875 C -0.398438 -4.597656 -0.519531 -5.023438 -0.5625 -5.453125 C -0.613281 -5.878906 -0.570312 -6.316406 -0.4375 -6.765625 C -0.257812 -7.265625 0 -7.710938 0.34375 -8.109375 C 0.695312 -8.515625 1.050781 -8.921875 1.40625 -9.328125 C 1.769531 -9.773438 2.144531 -10.179688 2.53125 -10.546875 C 2.925781 -10.921875 3.363281 -11.257812 3.84375 -11.5625 C 4.082031 -11.695312 4.328125 -11.800781 4.578125 -11.875 C 4.828125 -11.945312 5.085938 -11.921875 5.359375 -11.796875 C 5.867188 -11.628906 6.203125 -11.421875 6.359375 -11.171875 C 6.523438 -10.929688 6.617188 -10.609375 6.640625 -10.203125 C 6.660156 -9.753906 6.546875 -9.34375 6.296875 -8.96875 C 6.054688 -8.601562 5.742188 -8.34375 5.359375 -8.1875 C 4.972656 -8.050781 4.582031 -7.921875 4.1875 -7.796875 C 3.800781 -7.671875 3.414062 -7.550781 3.03125 -7.4375 C 2.8125 -7.351562 2.585938 -7.285156 2.359375 -7.234375 C 2.128906 -7.191406 1.90625 -7.140625 1.6875 -7.078125 C 1.613281 -7.054688 1.539062 -7.03125 1.46875 -7 C 1.40625 -6.976562 1.351562 -6.9375 1.3125 -6.875 C 1.132812 -6.5625 0.984375 -6.238281 0.859375 -5.90625 C 0.734375 -5.582031 0.707031 -5.226562 0.78125 -4.84375 C 0.84375 -4.488281 1.015625 -4.320312 1.296875 -4.34375 C 1.578125 -4.363281 1.890625 -4.472656 2.234375 -4.671875 C 2.585938 -4.878906 2.898438 -5.085938 3.171875 -5.296875 C 3.441406 -5.515625 3.585938 -5.632812 3.609375 -5.65625 C 3.710938 -5.726562 3.90625 -5.851562 4.1875 -6.03125 C 4.46875 -6.207031 4.664062 -6.332031 4.78125 -6.40625 C 4.988281 -6.5625 5.160156 -6.707031 5.296875 -6.84375 C 5.429688 -6.976562 5.609375 -7.113281 5.828125 -7.25 C 6.210938 -7.539062 6.609375 -7.832031 7.015625 -8.125 C 7.429688 -8.414062 7.851562 -8.679688 8.28125 -8.921875 C 8.394531 -8.972656 8.519531 -9.035156 8.65625 -9.109375 C 8.789062 -9.191406 8.890625 -9.210938 8.953125 -9.171875 C 9.160156 -9.054688 9.210938 -8.863281 9.109375 -8.59375 C 9.015625 -8.320312 8.863281 -8.109375 8.65625 -7.953125 C 7.757812 -7.273438 6.835938 -6.628906 5.890625 -6.015625 C 4.953125 -5.398438 4.035156 -4.742188 3.140625 -4.046875 C 2.972656 -3.910156 2.78125 -3.769531 2.5625 -3.625 C 2.351562 -3.476562 2.128906 -3.367188 1.890625 -3.296875 C 1.835938 -3.273438 1.75 -3.265625 1.625 -3.265625 Z M 2.5 -8.328125 C 2.71875 -8.347656 2.921875 -8.382812 3.109375 -8.4375 C 3.304688 -8.488281 3.503906 -8.539062 3.703125 -8.59375 C 3.898438 -8.65625 4.085938 -8.710938 4.265625 -8.765625 C 4.453125 -8.828125 4.632812 -8.894531 4.8125 -8.96875 C 4.96875 -9.03125 5.109375 -9.109375 5.234375 -9.203125 C 5.359375 -9.304688 5.457031 -9.425781 5.53125 -9.5625 C 5.570312 -9.632812 5.578125 -9.769531 5.546875 -9.96875 C 5.515625 -10.175781 5.457031 -10.363281 5.375 -10.53125 C 5.289062 -10.695312 5.171875 -10.75 5.015625 -10.6875 C 4.765625 -10.570312 4.539062 -10.4375 4.34375 -10.28125 C 4.144531 -10.125 3.941406 -9.941406 3.734375 -9.734375 C 3.597656 -9.617188 3.460938 -9.507812 3.328125 -9.40625 C 3.203125 -9.3125 3.082031 -9.207031 2.96875 -9.09375 C 2.78125 -8.957031 2.609375 -8.78125 2.453125 -8.5625 C 2.367188 -8.488281 2.347656 -8.421875 2.390625 -8.359375 C 2.410156 -8.335938 2.445312 -8.328125 2.5 -8.328125 Z M 2.5 -8.328125 "/></g></g><g style="fill:#000000;fill-opacity:1;"><g transform="translate(24.13142, 22.510867)"><path style="stroke:none" d="M 0.734375 -3.140625 C 0.578125 -3.046875 0.410156 -3.066406 0.234375 -3.203125 C -0.421875 -3.742188 -0.644531 -4.441406 -0.4375 -5.296875 C -0.363281 -5.554688 -0.28125 -5.8125 -0.1875 -6.0625 C -0.101562 -6.3125 0.00390625 -6.554688 0.140625 -6.796875 C 0.648438 -7.648438 1.210938 -8.445312 1.828125 -9.1875 C 2.453125 -9.9375 3.15625 -10.613281 3.9375 -11.21875 C 4.09375 -11.332031 4.253906 -11.4375 4.421875 -11.53125 C 4.597656 -11.632812 4.773438 -11.722656 4.953125 -11.796875 C 5.515625 -12.054688 6.050781 -12.019531 6.5625 -11.6875 C 7.082031 -11.351562 7.351562 -10.875 7.375 -10.25 C 7.375 -10.175781 7.375 -10.101562 7.375 -10.03125 C 7.375 -9.96875 7.382812 -9.898438 7.40625 -9.828125 C 7.4375 -9.628906 7.414062 -9.453125 7.34375 -9.296875 C 7.28125 -9.140625 7.191406 -8.984375 7.078125 -8.828125 C 6.898438 -8.554688 6.75 -8.28125 6.625 -8 C 6.5 -7.71875 6.359375 -7.441406 6.203125 -7.171875 L 5.21875 -5.296875 C 5.195312 -5.222656 5.148438 -5.125 5.078125 -5 C 5.015625 -4.875 4.992188 -4.757812 5.015625 -4.65625 C 5.054688 -4.5625 5.128906 -4.5625 5.234375 -4.65625 C 5.335938 -4.757812 5.410156 -4.828125 5.453125 -4.859375 C 5.835938 -5.210938 6.238281 -5.535156 6.65625 -5.828125 C 7.070312 -6.117188 7.492188 -6.398438 7.921875 -6.671875 L 10.109375 -8.09375 C 10.328125 -8.238281 10.535156 -8.382812 10.734375 -8.53125 C 10.941406 -8.675781 11.148438 -8.804688 11.359375 -8.921875 C 11.460938 -8.972656 11.582031 -9.035156 11.71875 -9.109375 C 11.851562 -9.191406 11.945312 -9.210938 12 -9.171875 C 12.21875 -9.054688 12.273438 -8.863281 12.171875 -8.59375 C 12.078125 -8.320312 11.925781 -8.109375 11.71875 -7.953125 C 11.695312 -7.929688 11.519531 -7.800781 11.1875 -7.5625 C 10.851562 -7.320312 10.457031 -7.039062 10 -6.71875 C 9.550781 -6.394531 9.109375 -6.078125 8.671875 -5.765625 C 8.234375 -5.453125 7.878906 -5.210938 7.609375 -5.046875 C 7.253906 -4.785156 6.910156 -4.535156 6.578125 -4.296875 C 6.253906 -4.054688 5.925781 -3.816406 5.59375 -3.578125 C 5.414062 -3.441406 5.210938 -3.347656 4.984375 -3.296875 C 4.609375 -3.179688 4.347656 -3.304688 4.203125 -3.671875 C 4.117188 -3.847656 4.054688 -4.003906 4.015625 -4.140625 C 3.984375 -4.273438 3.992188 -4.507812 4.046875 -4.84375 C 4.085938 -5.1875 4.175781 -5.519531 4.3125 -5.84375 C 4.445312 -6.164062 4.492188 -6.328125 4.453125 -6.328125 C 4.378906 -6.328125 4.210938 -6.207031 3.953125 -5.96875 C 3.691406 -5.738281 3.394531 -5.46875 3.0625 -5.15625 C 2.726562 -4.84375 2.40625 -4.539062 2.09375 -4.25 C 1.78125 -3.957031 1.550781 -3.734375 1.40625 -3.578125 C 1.300781 -3.503906 1.1875 -3.429688 1.0625 -3.359375 C 0.9375 -3.296875 0.828125 -3.222656 0.734375 -3.140625 Z M 0.78125 -4.78125 C 0.90625 -4.800781 1.015625 -4.847656 1.109375 -4.921875 C 1.179688 -4.941406 1.25 -5 1.3125 -5.09375 C 1.582031 -5.332031 1.847656 -5.570312 2.109375 -5.8125 C 2.367188 -6.050781 2.640625 -6.289062 2.921875 -6.53125 C 3.359375 -6.875 3.765625 -7.242188 4.140625 -7.640625 C 4.523438 -8.046875 4.90625 -8.453125 5.28125 -8.859375 C 5.582031 -9.191406 5.863281 -9.53125 6.125 -9.875 C 6.28125 -10.09375 6.367188 -10.300781 6.390625 -10.5 C 6.421875 -10.707031 6.378906 -10.859375 6.265625 -10.953125 C 6.085938 -11.085938 5.914062 -11.125 5.75 -11.0625 C 5.582031 -11.007812 5.425781 -10.9375 5.28125 -10.84375 C 4.96875 -10.644531 4.671875 -10.429688 4.390625 -10.203125 C 4.109375 -9.984375 3.832031 -9.757812 3.5625 -9.53125 C 3.132812 -9.15625 2.738281 -8.734375 2.375 -8.265625 C 2.007812 -7.804688 1.664062 -7.332031 1.34375 -6.84375 C 1.144531 -6.59375 0.992188 -6.3125 0.890625 -6 C 0.796875 -5.6875 0.734375 -5.359375 0.703125 -5.015625 Z M 0.78125 -4.78125 "/></g></g><g style="fill:#000000;fill-opacity:1;"><g transform="translate(34.091457, 22.510867)"><path style="stroke:none" d="M 5.015625 -1.65625 C 4.765625 -1.65625 4.5625 -1.796875 4.40625 -2.078125 C 4.25 -2.359375 4.171875 -2.628906 4.171875 -2.890625 C 4.171875 -3.253906 4.179688 -3.554688 4.203125 -3.796875 C 4.234375 -4.046875 4.296875 -4.316406 4.390625 -4.609375 C 4.492188 -4.898438 4.644531 -5.296875 4.84375 -5.796875 C 4.851562 -5.835938 4.859375 -5.894531 4.859375 -5.96875 C 4.859375 -6.050781 4.851562 -6.101562 4.84375 -6.125 C 4.757812 -6.21875 4.671875 -6.21875 4.578125 -6.125 C 4.492188 -6.0625 4.410156 -5.992188 4.328125 -5.921875 C 4.242188 -5.859375 4.148438 -5.789062 4.046875 -5.71875 L 1.75 -3.8125 C 1.65625 -3.738281 1.546875 -3.65625 1.421875 -3.5625 C 1.304688 -3.476562 1.179688 -3.398438 1.046875 -3.328125 C 0.503906 -3.066406 0.078125 -3.070312 -0.234375 -3.34375 C -0.546875 -3.625 -0.738281 -3.976562 -0.8125 -4.40625 C -0.875 -4.675781 -0.878906 -4.945312 -0.828125 -5.21875 C -0.773438 -5.488281 -0.703125 -5.75 -0.609375 -6 C -0.335938 -6.644531 -0.03125 -7.257812 0.3125 -7.84375 C 0.664062 -8.425781 1.085938 -8.976562 1.578125 -9.5 C 2.023438 -9.96875 2.488281 -10.398438 2.96875 -10.796875 C 3.457031 -11.191406 3.972656 -11.578125 4.515625 -11.953125 C 4.890625 -12.203125 5.304688 -12.316406 5.765625 -12.296875 C 6.160156 -12.273438 6.523438 -12.21875 6.859375 -12.125 C 7.203125 -12.039062 7.5 -11.835938 7.75 -11.515625 C 7.769531 -11.492188 7.867188 -11.488281 8.046875 -11.5 C 8.234375 -11.507812 8.335938 -11.523438 8.359375 -11.546875 C 8.628906 -11.929688 8.890625 -12.3125 9.140625 -12.6875 C 9.398438 -13.070312 9.65625 -13.457031 9.90625 -13.84375 C 10.46875 -14.675781 10.988281 -15.546875 11.46875 -16.453125 C 11.957031 -17.359375 12.425781 -18.253906 12.875 -19.140625 C 12.957031 -19.296875 13.050781 -19.4375 13.15625 -19.5625 C 13.257812 -19.6875 13.390625 -19.769531 13.546875 -19.8125 C 13.703125 -19.851562 13.800781 -19.847656 13.84375 -19.796875 C 13.894531 -19.753906 13.992188 -19.691406 14.140625 -19.609375 C 14.234375 -19.585938 14.289062 -19.53125 14.3125 -19.4375 C 14.34375 -19.351562 14.320312 -19.273438 14.25 -19.203125 C 13.332031 -17.628906 12.4375 -16.03125 11.5625 -14.40625 C 10.6875 -12.789062 9.75 -11.234375 8.75 -9.734375 C 8.257812 -9.035156 7.796875 -8.328125 7.359375 -7.609375 C 6.921875 -6.890625 6.535156 -6.140625 6.203125 -5.359375 C 6.066406 -5.046875 5.929688 -4.738281 5.796875 -4.4375 C 5.660156 -4.144531 5.546875 -3.832031 5.453125 -3.5 C 5.410156 -3.300781 5.382812 -3.097656 5.375 -2.890625 C 5.363281 -2.691406 5.40625 -2.484375 5.5 -2.265625 C 5.582031 -2.128906 5.566406 -1.992188 5.453125 -1.859375 C 5.347656 -1.722656 5.203125 -1.65625 5.015625 -1.65625 Z M 1.375 -5.078125 C 1.644531 -5.285156 1.898438 -5.492188 2.140625 -5.703125 C 2.378906 -5.921875 2.644531 -6.117188 2.9375 -6.296875 C 3.039062 -6.347656 3.128906 -6.414062 3.203125 -6.5 C 3.285156 -6.59375 3.363281 -6.679688 3.4375 -6.765625 L 4.140625 -7.375 L 5.15625 -8.25 C 5.25 -8.34375 5.34375 -8.445312 5.4375 -8.5625 C 5.539062 -8.6875 5.648438 -8.785156 5.765625 -8.859375 C 5.847656 -8.898438 5.929688 -8.941406 6.015625 -8.984375 C 6.109375 -9.035156 6.171875 -9.09375 6.203125 -9.15625 L 7.046875 -10.234375 C 7.085938 -10.265625 7.109375 -10.289062 7.109375 -10.3125 C 7.109375 -10.351562 7.097656 -10.382812 7.078125 -10.40625 C 7.003906 -10.5 6.894531 -10.617188 6.75 -10.765625 C 6.601562 -10.910156 6.476562 -11.003906 6.375 -11.046875 C 6.144531 -11.179688 5.898438 -11.222656 5.640625 -11.171875 C 5.378906 -11.128906 5.113281 -11.019531 4.84375 -10.84375 C 4.53125 -10.625 4.222656 -10.394531 3.921875 -10.15625 C 3.617188 -9.914062 3.320312 -9.660156 3.03125 -9.390625 C 2.582031 -8.960938 2.171875 -8.5 1.796875 -8 C 1.429688 -7.5 1.113281 -6.96875 0.84375 -6.40625 C 0.820312 -6.351562 0.753906 -6.195312 0.640625 -5.9375 C 0.523438 -5.6875 0.414062 -5.441406 0.3125 -5.203125 C 0.21875 -4.960938 0.179688 -4.800781 0.203125 -4.71875 C 0.242188 -4.625 0.347656 -4.597656 0.515625 -4.640625 C 0.691406 -4.691406 0.867188 -4.765625 1.046875 -4.859375 C 1.222656 -4.960938 1.332031 -5.035156 1.375 -5.078125 Z M 1.375 -5.078125 "/></g></g><g style="fill:#000000;fill-opacity:1;"><g transform="translate(42.566224, 22.510867)"><path style="stroke:none" d="M 8.953125 -3.34375 C 8.660156 -3.519531 8.550781 -3.796875 8.625 -4.171875 C 8.644531 -4.359375 8.671875 -4.550781 8.703125 -4.75 C 8.734375 -4.945312 8.785156 -5.128906 8.859375 -5.296875 C 9.035156 -5.710938 9.195312 -6.128906 9.34375 -6.546875 C 9.488281 -6.960938 9.707031 -7.351562 10 -7.71875 C 10.03125 -7.757812 10.0625 -7.8125 10.09375 -7.875 C 10.125 -7.945312 10.148438 -8.015625 10.171875 -8.078125 C 10.171875 -8.148438 10.160156 -8.195312 10.140625 -8.21875 C 10.078125 -8.28125 10.019531 -8.289062 9.96875 -8.25 C 9.882812 -8.226562 9.804688 -8.175781 9.734375 -8.09375 L 7.78125 -6.234375 C 7.3125 -5.804688 6.84375 -5.375 6.375 -4.9375 C 5.914062 -4.5 5.453125 -4.066406 4.984375 -3.640625 C 4.898438 -3.566406 4.804688 -3.488281 4.703125 -3.40625 C 4.597656 -3.332031 4.46875 -3.332031 4.3125 -3.40625 C 3.863281 -3.65625 3.671875 -3.992188 3.734375 -4.421875 C 3.765625 -4.546875 3.796875 -4.660156 3.828125 -4.765625 C 3.859375 -4.867188 3.90625 -4.972656 3.96875 -5.078125 C 4.132812 -5.398438 4.3125 -5.726562 4.5 -6.0625 C 4.6875 -6.40625 4.878906 -6.742188 5.078125 -7.078125 C 5.148438 -7.191406 5.222656 -7.304688 5.296875 -7.421875 C 5.378906 -7.546875 5.457031 -7.675781 5.53125 -7.8125 C 5.613281 -7.96875 5.691406 -8.125 5.765625 -8.28125 C 5.847656 -8.4375 5.925781 -8.582031 6 -8.71875 C 5.75 -8.769531 5.550781 -8.71875 5.40625 -8.5625 C 5.257812 -8.40625 5.109375 -8.269531 4.953125 -8.15625 C 4.410156 -7.789062 3.925781 -7.382812 3.5 -6.9375 C 2.96875 -6.394531 2.414062 -5.878906 1.84375 -5.390625 C 1.269531 -4.898438 0.765625 -4.359375 0.328125 -3.765625 L 0.203125 -3.609375 C -0.046875 -3.316406 -0.296875 -3.226562 -0.546875 -3.34375 C -0.972656 -3.539062 -1.148438 -3.84375 -1.078125 -4.25 C -1.054688 -4.351562 -1.019531 -4.453125 -0.96875 -4.546875 C -0.925781 -4.640625 -0.894531 -4.726562 -0.875 -4.8125 L -0.4375 -5.59375 C -0.125 -6.175781 0.195312 -6.753906 0.53125 -7.328125 C 0.875 -7.898438 1.203125 -8.46875 1.515625 -9.03125 L 2.9375 -11.59375 C 3 -11.695312 3.0625 -11.8125 3.125 -11.9375 C 3.195312 -12.0625 3.300781 -12.125 3.4375 -12.125 C 3.6875 -12.101562 3.882812 -12 4.03125 -11.8125 C 4.175781 -11.632812 4.203125 -11.4375 4.109375 -11.21875 C 4.085938 -11.15625 4.007812 -11.003906 3.875 -10.765625 C 3.738281 -10.523438 3.59375 -10.253906 3.4375 -9.953125 C 3.28125 -9.648438 3.140625 -9.378906 3.015625 -9.140625 C 2.890625 -8.910156 2.804688 -8.769531 2.765625 -8.71875 C 2.710938 -8.59375 2.648438 -8.476562 2.578125 -8.375 C 2.515625 -8.269531 2.453125 -8.160156 2.390625 -8.046875 C 2.347656 -7.984375 2.359375 -7.925781 2.421875 -7.875 C 2.472656 -7.8125 2.519531 -7.800781 2.5625 -7.84375 C 2.625 -7.875 2.6875 -7.90625 2.75 -7.9375 C 2.820312 -7.96875 2.878906 -8.003906 2.921875 -8.046875 C 3.191406 -8.316406 3.484375 -8.550781 3.796875 -8.75 C 4.117188 -8.957031 4.40625 -9.195312 4.65625 -9.46875 C 4.789062 -9.601562 4.941406 -9.722656 5.109375 -9.828125 C 5.273438 -9.941406 5.4375 -10.054688 5.59375 -10.171875 L 6.90625 -11.125 C 7 -11.207031 7.085938 -11.304688 7.171875 -11.421875 C 7.265625 -11.535156 7.378906 -11.554688 7.515625 -11.484375 C 7.691406 -11.398438 7.859375 -11.300781 8.015625 -11.1875 C 8.171875 -11.070312 8.316406 -10.945312 8.453125 -10.8125 C 8.492188 -10.789062 8.503906 -10.722656 8.484375 -10.609375 C 8.460938 -10.492188 8.429688 -10.382812 8.390625 -10.28125 C 8.253906 -9.957031 8.101562 -9.625 7.9375 -9.28125 C 7.769531 -8.9375 7.609375 -8.601562 7.453125 -8.28125 C 7.441406 -8.195312 7.414062 -8.117188 7.375 -8.046875 C 7.332031 -7.984375 7.289062 -7.914062 7.25 -7.84375 C 7.25 -7.78125 7.269531 -7.726562 7.3125 -7.6875 C 7.332031 -7.664062 7.351562 -7.660156 7.375 -7.671875 C 7.394531 -7.679688 7.40625 -7.6875 7.40625 -7.6875 C 7.726562 -7.957031 8.054688 -8.238281 8.390625 -8.53125 C 8.722656 -8.820312 9.054688 -9.097656 9.390625 -9.359375 L 11.984375 -11.328125 C 12.210938 -11.503906 12.425781 -11.503906 12.625 -11.328125 C 12.71875 -11.253906 12.8125 -11.171875 12.90625 -11.078125 C 13.007812 -10.992188 13.097656 -10.90625 13.171875 -10.8125 C 13.242188 -10.695312 13.242188 -10.5625 13.171875 -10.40625 C 12.878906 -9.894531 12.582031 -9.382812 12.28125 -8.875 C 11.976562 -8.375 11.660156 -7.875 11.328125 -7.375 C 11.046875 -6.945312 10.757812 -6.523438 10.46875 -6.109375 C 10.175781 -5.691406 9.921875 -5.238281 9.703125 -4.75 C 9.898438 -4.882812 10.085938 -5.019531 10.265625 -5.15625 C 10.453125 -5.289062 10.644531 -5.414062 10.84375 -5.53125 L 11.359375 -5.828125 C 11.421875 -5.867188 11.507812 -5.929688 11.625 -6.015625 C 11.738281 -6.109375 11.835938 -6.15625 11.921875 -6.15625 C 12.242188 -6.363281 12.640625 -6.617188 13.109375 -6.921875 C 13.578125 -7.222656 14.035156 -7.523438 14.484375 -7.828125 C 14.929688 -8.128906 15.3125 -8.378906 15.625 -8.578125 C 15.945312 -8.785156 16.117188 -8.898438 16.140625 -8.921875 C 16.242188 -8.972656 16.363281 -9.035156 16.5 -9.109375 C 16.632812 -9.191406 16.726562 -9.210938 16.78125 -9.171875 C 17 -9.054688 17.0625 -8.863281 16.96875 -8.59375 C 16.882812 -8.320312 16.734375 -8.109375 16.515625 -7.953125 C 16.484375 -7.929688 16.304688 -7.800781 15.984375 -7.5625 C 15.660156 -7.320312 15.265625 -7.039062 14.796875 -6.71875 C 14.335938 -6.394531 13.890625 -6.078125 13.453125 -5.765625 C 13.015625 -5.453125 12.660156 -5.210938 12.390625 -5.046875 C 12.035156 -4.785156 11.691406 -4.535156 11.359375 -4.296875 C 11.035156 -4.054688 10.707031 -3.816406 10.375 -3.578125 C 10.175781 -3.441406 9.941406 -3.335938 9.671875 -3.265625 C 9.398438 -3.203125 9.160156 -3.226562 8.953125 -3.34375 Z M 8.953125 -3.34375 "/></g></g><g style="fill:#000000;fill-opacity:1;"><g transform="translate(57.331539, 22.510867)"><path style="stroke:none" d="M 1.625 -3.265625 C 0.769531 -3.046875 0.160156 -3.347656 -0.203125 -4.171875 C -0.398438 -4.597656 -0.519531 -5.023438 -0.5625 -5.453125 C -0.613281 -5.878906 -0.570312 -6.316406 -0.4375 -6.765625 C -0.257812 -7.265625 0 -7.710938 0.34375 -8.109375 C 0.695312 -8.515625 1.050781 -8.921875 1.40625 -9.328125 C 1.769531 -9.773438 2.144531 -10.179688 2.53125 -10.546875 C 2.925781 -10.921875 3.363281 -11.257812 3.84375 -11.5625 C 4.082031 -11.695312 4.328125 -11.800781 4.578125 -11.875 C 4.828125 -11.945312 5.085938 -11.921875 5.359375 -11.796875 C 5.867188 -11.628906 6.203125 -11.421875 6.359375 -11.171875 C 6.523438 -10.929688 6.617188 -10.609375 6.640625 -10.203125 C 6.660156 -9.753906 6.546875 -9.34375 6.296875 -8.96875 C 6.054688 -8.601562 5.742188 -8.34375 5.359375 -8.1875 C 4.972656 -8.050781 4.582031 -7.921875 4.1875 -7.796875 C 3.800781 -7.671875 3.414062 -7.550781 3.03125 -7.4375 C 2.8125 -7.351562 2.585938 -7.285156 2.359375 -7.234375 C 2.128906 -7.191406 1.90625 -7.140625 1.6875 -7.078125 C 1.613281 -7.054688 1.539062 -7.03125 1.46875 -7 C 1.40625 -6.976562 1.351562 -6.9375 1.3125 -6.875 C 1.132812 -6.5625 0.984375 -6.238281 0.859375 -5.90625 C 0.734375 -5.582031 0.707031 -5.226562 0.78125 -4.84375 C 0.84375 -4.488281 1.015625 -4.320312 1.296875 -4.34375 C 1.578125 -4.363281 1.890625 -4.472656 2.234375 -4.671875 C 2.585938 -4.878906 2.898438 -5.085938 3.171875 -5.296875 C 3.441406 -5.515625 3.585938 -5.632812 3.609375 -5.65625 C 3.710938 -5.726562 3.90625 -5.851562 4.1875 -6.03125 C 4.46875 -6.207031 4.664062 -6.332031 4.78125 -6.40625 C 4.988281 -6.5625 5.160156 -6.707031 5.296875 -6.84375 C 5.429688 -6.976562 5.609375 -7.113281 5.828125 -7.25 C 6.210938 -7.539062 6.609375 -7.832031 7.015625 -8.125 C 7.429688 -8.414062 7.851562 -8.679688 8.28125 -8.921875 C 8.394531 -8.972656 8.519531 -9.035156 8.65625 -9.109375 C 8.789062 -9.191406 8.890625 -9.210938 8.953125 -9.171875 C 9.160156 -9.054688 9.210938 -8.863281 9.109375 -8.59375 C 9.015625 -8.320312 8.863281 -8.109375 8.65625 -7.953125 C 7.757812 -7.273438 6.835938 -6.628906 5.890625 -6.015625 C 4.953125 -5.398438 4.035156 -4.742188 3.140625 -4.046875 C 2.972656 -3.910156 2.78125 -3.769531 2.5625 -3.625 C 2.351562 -3.476562 2.128906 -3.367188 1.890625 -3.296875 C 1.835938 -3.273438 1.75 -3.265625 1.625 -3.265625 Z M 2.5 -8.328125 C 2.71875 -8.347656 2.921875 -8.382812 3.109375 -8.4375 C 3.304688 -8.488281 3.503906 -8.539062 3.703125 -8.59375 C 3.898438 -8.65625 4.085938 -8.710938 4.265625 -8.765625 C 4.453125 -8.828125 4.632812 -8.894531 4.8125 -8.96875 C 4.96875 -9.03125 5.109375 -9.109375 5.234375 -9.203125 C 5.359375 -9.304688 5.457031 -9.425781 5.53125 -9.5625 C 5.570312 -9.632812 5.578125 -9.769531 5.546875 -9.96875 C 5.515625 -10.175781 5.457031 -10.363281 5.375 -10.53125 C 5.289062 -10.695312 5.171875 -10.75 5.015625 -10.6875 C 4.765625 -10.570312 4.539062 -10.4375 4.34375 -10.28125 C 4.144531 -10.125 3.941406 -9.941406 3.734375 -9.734375 C 3.597656 -9.617188 3.460938 -9.507812 3.328125 -9.40625 C 3.203125 -9.3125 3.082031 -9.207031 2.96875 -9.09375 C 2.78125 -8.957031 2.609375 -8.78125 2.453125 -8.5625 C 2.367188 -8.488281 2.347656 -8.421875 2.390625 -8.359375 C 2.410156 -8.335938 2.445312 -8.328125 2.5 -8.328125 Z M 2.5 -8.328125 "/></g></g><g style="fill:#000000;fill-opacity:1;"><g transform="translate(64.37928, 22.510867)"><path style="stroke:none" d=""/></g></g><g style="fill:#000000;fill-opacity:1;"><g transform="translate(73.989836, 22.510867)"><path style="stroke:none" d="M 0.5 1.25 C 0.363281 1.269531 0.175781 1.304688 -0.0625 1.359375 C -0.3125 1.421875 -0.539062 1.445312 -0.75 1.4375 C -0.96875 1.425781 -1.113281 1.335938 -1.1875 1.171875 C -1.269531 0.992188 -1.34375 0.796875 -1.40625 0.578125 C -1.457031 0.441406 -1.457031 0.328125 -1.40625 0.234375 C -1.34375 0.171875 -1.253906 0.144531 -1.140625 0.15625 C -1.023438 0.164062 -0.925781 0.171875 -0.84375 0.171875 L -0.0625 0.09375 C 0.289062 0.0507812 0.628906 0 0.953125 -0.0625 C 1.285156 -0.132812 1.617188 -0.222656 1.953125 -0.328125 C 2.515625 -0.472656 3.046875 -0.660156 3.546875 -0.890625 C 4.054688 -1.128906 4.554688 -1.40625 5.046875 -1.71875 C 6.015625 -2.34375 6.875 -3.082031 7.625 -3.9375 C 8.382812 -4.789062 9.039062 -5.722656 9.59375 -6.734375 C 9.78125 -7.078125 9.960938 -7.425781 10.140625 -7.78125 C 10.316406 -8.144531 10.472656 -8.515625 10.609375 -8.890625 C 10.816406 -9.453125 11 -10.035156 11.15625 -10.640625 C 11.3125 -11.242188 11.398438 -11.84375 11.421875 -12.4375 C 11.484375 -13.507812 11.210938 -14.519531 10.609375 -15.46875 C 10.390625 -15.820312 10.164062 -15.84375 9.9375 -15.53125 C 9.582031 -15.039062 9.222656 -14.554688 8.859375 -14.078125 C 8.503906 -13.609375 8.164062 -13.125 7.84375 -12.625 C 7.101562 -11.488281 6.40625 -10.320312 5.75 -9.125 C 5.101562 -7.9375 4.554688 -6.703125 4.109375 -5.421875 C 4.035156 -5.222656 3.96875 -5.023438 3.90625 -4.828125 C 3.84375 -4.640625 3.898438 -4.4375 4.078125 -4.21875 C 4.117188 -4.207031 4.132812 -4.160156 4.125 -4.078125 C 4.113281 -4.003906 4.097656 -3.9375 4.078125 -3.875 C 4.023438 -3.695312 3.976562 -3.519531 3.9375 -3.34375 C 3.894531 -3.175781 3.828125 -3.015625 3.734375 -2.859375 C 3.691406 -2.773438 3.625 -2.691406 3.53125 -2.609375 C 3.445312 -2.523438 3.359375 -2.472656 3.265625 -2.453125 C 3.035156 -2.453125 2.859375 -2.566406 2.734375 -2.796875 C 2.410156 -3.359375 2.332031 -3.953125 2.5 -4.578125 C 2.632812 -5.140625 2.800781 -5.679688 3 -6.203125 C 3.195312 -6.734375 3.398438 -7.257812 3.609375 -7.78125 C 4.171875 -9 4.789062 -10.1875 5.46875 -11.34375 C 6.15625 -12.5 6.882812 -13.625 7.65625 -14.71875 L 9 -16.578125 C 9.15625 -16.796875 9.222656 -16.957031 9.203125 -17.0625 C 9.179688 -17.164062 9.085938 -17.285156 8.921875 -17.421875 C 8.566406 -17.710938 8.210938 -17.976562 7.859375 -18.21875 C 7.515625 -18.46875 7.117188 -18.671875 6.671875 -18.828125 C 6.535156 -18.867188 6.390625 -18.898438 6.234375 -18.921875 C 6.078125 -18.953125 5.921875 -18.945312 5.765625 -18.90625 C 5.628906 -18.875 5.503906 -18.804688 5.390625 -18.703125 C 5.273438 -18.609375 5.140625 -18.539062 4.984375 -18.5 C 4.847656 -18.46875 4.726562 -18.476562 4.625 -18.53125 C 4.53125 -18.59375 4.460938 -18.679688 4.421875 -18.796875 C 4.390625 -19.023438 4.367188 -19.257812 4.359375 -19.5 C 4.347656 -19.75 4.398438 -19.976562 4.515625 -20.1875 C 4.785156 -20.695312 5.164062 -20.851562 5.65625 -20.65625 C 6.53125 -20.34375 7.375 -19.9375 8.1875 -19.4375 C 8.382812 -19.320312 8.578125 -19.191406 8.765625 -19.046875 C 8.960938 -18.898438 9.160156 -18.769531 9.359375 -18.65625 C 9.523438 -18.570312 9.6875 -18.476562 9.84375 -18.375 C 10 -18.28125 10.1875 -18.265625 10.40625 -18.328125 C 10.632812 -18.390625 10.785156 -18.394531 10.859375 -18.34375 C 10.941406 -18.289062 11.015625 -18.160156 11.078125 -17.953125 C 11.109375 -17.867188 11.144531 -17.785156 11.1875 -17.703125 C 11.226562 -17.617188 11.226562 -17.546875 11.1875 -17.484375 C 11.070312 -17.234375 11.0625 -17.007812 11.15625 -16.8125 C 11.257812 -16.613281 11.359375 -16.421875 11.453125 -16.234375 C 12.671875 -13.941406 12.847656 -11.570312 11.984375 -9.125 C 11.222656 -7.019531 10.148438 -5.144531 8.765625 -3.5 C 7.929688 -2.488281 6.960938 -1.625 5.859375 -0.90625 C 4.753906 -0.1875 3.578125 0.375 2.328125 0.78125 C 2.015625 0.863281 1.707031 0.945312 1.40625 1.03125 C 1.113281 1.125 0.8125 1.195312 0.5 1.25 Z M 0.5 1.25 "/></g></g><g style="fill:#000000;fill-opacity:1;"><g transform="translate(86.512688, 22.510867)"><path style="stroke:none" d="M 1.625 -3.265625 C 0.769531 -3.046875 0.160156 -3.347656 -0.203125 -4.171875 C -0.398438 -4.597656 -0.519531 -5.023438 -0.5625 -5.453125 C -0.613281 -5.878906 -0.570312 -6.316406 -0.4375 -6.765625 C -0.257812 -7.265625 0 -7.710938 0.34375 -8.109375 C 0.695312 -8.515625 1.050781 -8.921875 1.40625 -9.328125 C 1.769531 -9.773438 2.144531 -10.179688 2.53125 -10.546875 C 2.925781 -10.921875 3.363281 -11.257812 3.84375 -11.5625 C 4.082031 -11.695312 4.328125 -11.800781 4.578125 -11.875 C 4.828125 -11.945312 5.085938 -11.921875 5.359375 -11.796875 C 5.867188 -11.628906 6.203125 -11.421875 6.359375 -11.171875 C 6.523438 -10.929688 6.617188 -10.609375 6.640625 -10.203125 C 6.660156 -9.753906 6.546875 -9.34375 6.296875 -8.96875 C 6.054688 -8.601562 5.742188 -8.34375 5.359375 -8.1875 C 4.972656 -8.050781 4.582031 -7.921875 4.1875 -7.796875 C 3.800781 -7.671875 3.414062 -7.550781 3.03125 -7.4375 C 2.8125 -7.351562 2.585938 -7.285156 2.359375 -7.234375 C 2.128906 -7.191406 1.90625 -7.140625 1.6875 -7.078125 C 1.613281 -7.054688 1.539062 -7.03125 1.46875 -7 C 1.40625 -6.976562 1.351562 -6.9375 1.3125 -6.875 C 1.132812 -6.5625 0.984375 -6.238281 0.859375 -5.90625 C 0.734375 -5.582031 0.707031 -5.226562 0.78125 -4.84375 C 0.84375 -4.488281 1.015625 -4.320312 1.296875 -4.34375 C 1.578125 -4.363281 1.890625 -4.472656 2.234375 -4.671875 C 2.585938 -4.878906 2.898438 -5.085938 3.171875 -5.296875 C 3.441406 -5.515625 3.585938 -5.632812 3.609375 -5.65625 C 3.710938 -5.726562 3.90625 -5.851562 4.1875 -6.03125 C 4.46875 -6.207031 4.664062 -6.332031 4.78125 -6.40625 C 4.988281 -6.5625 5.160156 -6.707031 5.296875 -6.84375 C 5.429688 -6.976562 5.609375 -7.113281 5.828125 -7.25 C 6.210938 -7.539062 6.609375 -7.832031 7.015625 -8.125 C 7.429688 -8.414062 7.851562 -8.679688 8.28125 -8.921875 C 8.394531 -8.972656 8.519531 -9.035156 8.65625 -9.109375 C 8.789062 -9.191406 8.890625 -9.210938 8.953125 -9.171875 C 9.160156 -9.054688 9.210938 -8.863281 9.109375 -8.59375 C 9.015625 -8.320312 8.863281 -8.109375 8.65625 -7.953125 C 7.757812 -7.273438 6.835938 -6.628906 5.890625 -6.015625 C 4.953125 -5.398438 4.035156 -4.742188 3.140625 -4.046875 C 2.972656 -3.910156 2.78125 -3.769531 2.5625 -3.625 C 2.351562 -3.476562 2.128906 -3.367188 1.890625 -3.296875 C 1.835938 -3.273438 1.75 -3.265625 1.625 -3.265625 Z M 2.5 -8.328125 C 2.71875 -8.347656 2.921875 -8.382812 3.109375 -8.4375 C 3.304688 -8.488281 3.503906 -8.539062 3.703125 -8.59375 C 3.898438 -8.65625 4.085938 -8.710938 4.265625 -8.765625 C 4.453125 -8.828125 4.632812 -8.894531 4.8125 -8.96875 C 4.96875 -9.03125 5.109375 -9.109375 5.234375 -9.203125 C 5.359375 -9.304688 5.457031 -9.425781 5.53125 -9.5625 C 5.570312 -9.632812 5.578125 -9.769531 5.546875 -9.96875 C 5.515625 -10.175781 5.457031 -10.363281 5.375 -10.53125 C 5.289062 -10.695312 5.171875 -10.75 5.015625 -10.6875 C 4.765625 -10.570312 4.539062 -10.4375 4.34375 -10.28125 C 4.144531 -10.125 3.941406 -9.941406 3.734375 -9.734375 C 3.597656 -9.617188 3.460938 -9.507812 3.328125 -9.40625 C 3.203125 -9.3125 3.082031 -9.207031 2.96875 -9.09375 C 2.78125 -8.957031 2.609375 -8.78125 2.453125 -8.5625 C 2.367188 -8.488281 2.347656 -8.421875 2.390625 -8.359375 C 2.410156 -8.335938 2.445312 -8.328125 2.5 -8.328125 Z M 2.5 -8.328125 "/></g></g><g style="fill:#000000;fill-opacity:1;"><g transform="translate(93.560429, 22.510867)"><path style="stroke:none" d="M 0 -1.859375 C -0.488281 -2.015625 -0.796875 -2.347656 -0.921875 -2.859375 C -1.046875 -3.378906 -0.988281 -3.832031 -0.75 -4.21875 C -0.601562 -4.457031 -0.414062 -4.660156 -0.1875 -4.828125 C 0.03125 -4.992188 0.257812 -5.144531 0.5 -5.28125 C 0.789062 -5.445312 1.09375 -5.597656 1.40625 -5.734375 C 1.726562 -5.867188 2.035156 -6.015625 2.328125 -6.171875 C 2.546875 -6.296875 2.660156 -6.367188 2.671875 -6.390625 C 2.679688 -6.421875 2.617188 -6.535156 2.484375 -6.734375 C 2.398438 -6.828125 2.320312 -6.925781 2.25 -7.03125 C 2.1875 -7.144531 2.117188 -7.238281 2.046875 -7.3125 C 1.734375 -7.738281 1.539062 -8.1875 1.46875 -8.65625 C 1.40625 -9.125 1.585938 -9.550781 2.015625 -9.9375 C 2.398438 -10.289062 2.84375 -10.59375 3.34375 -10.84375 C 3.851562 -11.09375 4.359375 -11.285156 4.859375 -11.421875 C 5.015625 -11.460938 5.160156 -11.492188 5.296875 -11.515625 C 5.429688 -11.535156 5.570312 -11.535156 5.71875 -11.515625 C 6.019531 -11.472656 6.25 -11.335938 6.40625 -11.109375 C 6.5625 -10.910156 6.597656 -10.660156 6.515625 -10.359375 C 6.441406 -10.054688 6.359375 -9.800781 6.265625 -9.59375 C 6.191406 -9.414062 6.03125 -9.289062 5.78125 -9.21875 C 5.539062 -9.15625 5.332031 -9.171875 5.15625 -9.265625 C 5.113281 -9.285156 5.097656 -9.320312 5.109375 -9.375 C 5.117188 -9.4375 5.132812 -9.488281 5.15625 -9.53125 C 5.3125 -9.800781 5.359375 -10.101562 5.296875 -10.4375 C 5.296875 -10.46875 5.28125 -10.503906 5.25 -10.546875 L 5.125 -10.546875 C 4.988281 -10.523438 4.863281 -10.503906 4.75 -10.484375 C 4.632812 -10.472656 4.507812 -10.4375 4.375 -10.375 C 4.0625 -10.238281 3.71875 -10.066406 3.34375 -9.859375 C 2.976562 -9.660156 2.804688 -9.335938 2.828125 -8.890625 C 2.847656 -8.640625 2.9375 -8.390625 3.09375 -8.140625 C 3.257812 -7.898438 3.40625 -7.671875 3.53125 -7.453125 C 3.582031 -7.335938 3.648438 -7.21875 3.734375 -7.09375 C 3.828125 -6.96875 3.941406 -6.894531 4.078125 -6.875 C 4.191406 -6.875 4.328125 -6.914062 4.484375 -7 C 4.859375 -7.164062 5.21875 -7.347656 5.5625 -7.546875 C 5.914062 -7.742188 6.25 -7.945312 6.5625 -8.15625 C 6.71875 -8.269531 6.859375 -8.382812 6.984375 -8.5 C 7.109375 -8.625 7.238281 -8.742188 7.375 -8.859375 C 7.425781 -8.921875 7.539062 -9.003906 7.71875 -9.109375 C 7.894531 -9.210938 8.019531 -9.234375 8.09375 -9.171875 C 8.3125 -9.054688 8.394531 -8.90625 8.34375 -8.71875 C 8.300781 -8.539062 8.1875 -8.347656 8 -8.140625 C 7.8125 -7.941406 7.617188 -7.765625 7.421875 -7.609375 C 7.234375 -7.453125 7.09375 -7.34375 7 -7.28125 C 6.6875 -7.070312 6.320312 -6.859375 5.90625 -6.640625 C 5.5 -6.429688 5.148438 -6.191406 4.859375 -5.921875 C 4.535156 -5.609375 4.304688 -5.195312 4.171875 -4.6875 C 4.035156 -4.1875 3.8125 -3.75 3.5 -3.375 C 3.257812 -3.070312 2.941406 -2.78125 2.546875 -2.5 C 2.148438 -2.226562 1.726562 -2.023438 1.28125 -1.890625 C 0.832031 -1.753906 0.40625 -1.742188 0 -1.859375 Z M 1.375 -3.03125 L 2.359375 -3.78125 C 2.398438 -3.800781 2.460938 -3.847656 2.546875 -3.921875 C 2.640625 -4.003906 2.722656 -4.085938 2.796875 -4.171875 C 2.835938 -4.222656 2.914062 -4.320312 3.03125 -4.46875 C 3.144531 -4.613281 3.238281 -4.765625 3.3125 -4.921875 C 3.394531 -5.078125 3.40625 -5.1875 3.34375 -5.25 C 3.289062 -5.320312 3.148438 -5.3125 2.921875 -5.21875 C 2.703125 -5.132812 2.472656 -5.035156 2.234375 -4.921875 C 2.003906 -4.804688 1.863281 -4.726562 1.8125 -4.6875 C 1.59375 -4.59375 1.375 -4.484375 1.15625 -4.359375 C 0.945312 -4.234375 0.738281 -4.101562 0.53125 -3.96875 C 0.269531 -3.8125 0.164062 -3.613281 0.21875 -3.375 C 0.269531 -3.144531 0.40625 -2.976562 0.625 -2.875 C 0.851562 -2.78125 1.101562 -2.832031 1.375 -3.03125 Z M 1.375 -3.03125 "/></g></g><g style="fill:#000000;fill-opacity:1;"><g transform="translate(99.792734, 22.510867)"><path style="stroke:none" d="M 5.5 -13.46875 C 5.332031 -13.207031 5.148438 -13.207031 4.953125 -13.46875 C 4.816406 -13.625 4.75 -13.78125 4.75 -13.9375 C 4.75 -14.101562 4.757812 -14.273438 4.78125 -14.453125 C 4.800781 -14.535156 4.820312 -14.601562 4.84375 -14.65625 C 4.875 -14.71875 4.898438 -14.773438 4.921875 -14.828125 C 5.160156 -15.160156 5.390625 -15.5 5.609375 -15.84375 C 5.828125 -16.195312 6.054688 -16.539062 6.296875 -16.875 C 6.429688 -17.050781 6.601562 -17.1875 6.8125 -17.28125 C 6.988281 -17.375 7.140625 -17.410156 7.265625 -17.390625 C 7.390625 -17.378906 7.53125 -17.300781 7.6875 -17.15625 C 8.082031 -16.8125 8.265625 -16.5625 8.234375 -16.40625 C 8.203125 -16.25 7.960938 -16.054688 7.515625 -15.828125 C 7.109375 -15.628906 6.757812 -15.304688 6.46875 -14.859375 Z M 0.703125 -3.296875 C 0.253906 -3.160156 -0.101562 -3.238281 -0.375 -3.53125 C -0.644531 -3.820312 -0.804688 -4.191406 -0.859375 -4.640625 C -0.910156 -5.097656 -0.847656 -5.492188 -0.671875 -5.828125 C -0.378906 -6.367188 -0.0703125 -6.90625 0.25 -7.4375 C 0.582031 -7.976562 0.9375 -8.488281 1.3125 -8.96875 C 1.445312 -9.164062 1.628906 -9.453125 1.859375 -9.828125 C 2.097656 -10.210938 2.351562 -10.5625 2.625 -10.875 C 2.894531 -11.195312 3.15625 -11.367188 3.40625 -11.390625 C 3.5625 -11.429688 3.796875 -11.414062 4.109375 -11.34375 C 4.421875 -11.28125 4.578125 -11.160156 4.578125 -10.984375 C 4.578125 -10.910156 4.457031 -10.796875 4.21875 -10.640625 C 3.988281 -10.484375 3.84375 -10.375 3.78125 -10.3125 C 3.4375 -9.96875 3.113281 -9.582031 2.8125 -9.15625 C 2.507812 -8.738281 2.222656 -8.328125 1.953125 -7.921875 C 1.796875 -7.648438 1.625 -7.382812 1.4375 -7.125 C 1.257812 -6.863281 1.09375 -6.597656 0.9375 -6.328125 C 0.851562 -6.191406 0.773438 -6.046875 0.703125 -5.890625 C 0.640625 -5.734375 0.585938 -5.578125 0.546875 -5.421875 C 0.535156 -5.285156 0.53125 -5.128906 0.53125 -4.953125 C 0.539062 -4.773438 0.664062 -4.753906 0.90625 -4.890625 C 1.238281 -5.109375 1.566406 -5.316406 1.890625 -5.515625 C 2.222656 -5.722656 2.546875 -5.9375 2.859375 -6.15625 C 3.179688 -6.363281 3.578125 -6.617188 4.046875 -6.921875 C 4.515625 -7.222656 4.976562 -7.523438 5.4375 -7.828125 C 5.894531 -8.128906 6.273438 -8.378906 6.578125 -8.578125 C 6.890625 -8.785156 7.054688 -8.898438 7.078125 -8.921875 C 7.179688 -8.972656 7.300781 -9.035156 7.4375 -9.109375 C 7.582031 -9.191406 7.6875 -9.210938 7.75 -9.171875 C 7.96875 -9.054688 8.023438 -8.863281 7.921875 -8.59375 C 7.828125 -8.320312 7.671875 -8.109375 7.453125 -7.953125 C 7.421875 -7.929688 7.242188 -7.800781 6.921875 -7.5625 C 6.597656 -7.320312 6.203125 -7.039062 5.734375 -6.71875 C 5.273438 -6.394531 4.828125 -6.078125 4.390625 -5.765625 C 3.953125 -5.453125 3.597656 -5.210938 3.328125 -5.046875 C 2.992188 -4.785156 2.65625 -4.535156 2.3125 -4.296875 C 1.976562 -4.054688 1.644531 -3.816406 1.3125 -3.578125 C 1.226562 -3.503906 1.128906 -3.445312 1.015625 -3.40625 C 0.898438 -3.363281 0.796875 -3.328125 0.703125 -3.296875 Z M 0.703125 -3.296875 "/></g></g><g style="fill:#000000;fill-opacity:1;"><g transform="translate(105.675558, 22.510867)"><path style="stroke:none" d="M -2.65625 5.5 C -2.882812 5.46875 -3.03125 5.359375 -3.09375 5.171875 C -3.164062 4.984375 -3.164062 4.773438 -3.09375 4.546875 C -3.03125 4.328125 -2.929688 4.160156 -2.796875 4.046875 C -2.679688 3.953125 -2.546875 3.875 -2.390625 3.8125 C -2.234375 3.757812 -2.085938 3.691406 -1.953125 3.609375 C -1.441406 3.265625 -0.863281 2.742188 -0.21875 2.046875 C 0.425781 1.359375 0.972656 0.664062 1.421875 -0.03125 C 1.734375 -0.507812 2.035156 -1 2.328125 -1.5 C 2.617188 -2 2.921875 -2.488281 3.234375 -2.96875 C 3.390625 -3.238281 3.550781 -3.515625 3.71875 -3.796875 C 3.882812 -4.078125 4.035156 -4.359375 4.171875 -4.640625 C 4.203125 -4.691406 4.191406 -4.75 4.140625 -4.8125 C 4.078125 -4.863281 4.03125 -4.875 4 -4.84375 C 3.757812 -4.707031 3.523438 -4.554688 3.296875 -4.390625 C 3.078125 -4.222656 2.863281 -4.0625 2.65625 -3.90625 C 2.4375 -3.769531 2.21875 -3.628906 2 -3.484375 C 1.789062 -3.335938 1.570312 -3.21875 1.34375 -3.125 C 0.800781 -2.863281 0.363281 -3 0.03125 -3.53125 C -0.164062 -3.800781 -0.289062 -4.015625 -0.34375 -4.171875 C -0.40625 -4.335938 -0.4375 -4.609375 -0.4375 -4.984375 C -0.394531 -5.097656 -0.351562 -5.253906 -0.3125 -5.453125 C -0.28125 -5.660156 -0.234375 -5.863281 -0.171875 -6.0625 C 0.0351562 -6.695312 0.320312 -7.285156 0.6875 -7.828125 C 1.0625 -8.378906 1.472656 -8.898438 1.921875 -9.390625 C 2.253906 -9.734375 2.601562 -10.070312 2.96875 -10.40625 C 3.34375 -10.75 3.753906 -11.03125 4.203125 -11.25 C 4.878906 -11.582031 5.484375 -11.660156 6.015625 -11.484375 C 6.546875 -11.304688 6.96875 -10.878906 7.28125 -10.203125 C 7.34375 -10.085938 7.414062 -10 7.5 -9.9375 C 7.59375 -9.875 7.675781 -9.816406 7.75 -9.765625 C 8.039062 -9.609375 8.207031 -9.445312 8.25 -9.28125 C 8.300781 -9.113281 8.257812 -8.875 8.125 -8.5625 C 8.050781 -8.40625 7.972656 -8.25 7.890625 -8.09375 C 7.816406 -7.945312 7.734375 -7.796875 7.640625 -7.640625 C 7.367188 -7.210938 7.097656 -6.785156 6.828125 -6.359375 C 6.566406 -5.929688 6.3125 -5.492188 6.0625 -5.046875 C 5.726562 -4.421875 5.367188 -3.8125 4.984375 -3.21875 C 4.597656 -2.625 4.21875 -2.023438 3.84375 -1.421875 C 3.300781 -0.546875 2.773438 0.195312 2.265625 0.8125 C 1.765625 1.4375 1.175781 2.144531 0.5 2.9375 C 0.238281 3.25 -0.0234375 3.554688 -0.296875 3.859375 C -0.566406 4.160156 -0.847656 4.457031 -1.140625 4.75 C -1.316406 4.882812 -1.546875 5.046875 -1.828125 5.234375 C -2.117188 5.429688 -2.394531 5.519531 -2.65625 5.5 Z M 1.171875 -4.8125 C 1.242188 -4.832031 1.316406 -4.847656 1.390625 -4.859375 C 1.472656 -4.878906 1.546875 -4.910156 1.609375 -4.953125 C 1.859375 -5.128906 2.101562 -5.300781 2.34375 -5.46875 C 2.582031 -5.632812 2.832031 -5.8125 3.09375 -6 C 3.476562 -6.332031 3.890625 -6.65625 4.328125 -6.96875 C 4.765625 -7.28125 5.140625 -7.640625 5.453125 -8.046875 C 5.566406 -8.203125 5.679688 -8.398438 5.796875 -8.640625 C 5.910156 -8.878906 5.976562 -9.125 6 -9.375 C 6.019531 -9.632812 5.941406 -9.84375 5.765625 -10 L 5.71875 -10.046875 C 5.539062 -10.179688 5.328125 -10.179688 5.078125 -10.046875 C 4.835938 -9.910156 4.640625 -9.796875 4.484375 -9.703125 C 4.003906 -9.390625 3.582031 -9.023438 3.21875 -8.609375 C 2.863281 -8.191406 2.5 -7.78125 2.125 -7.375 C 1.875 -7.082031 1.664062 -6.757812 1.5 -6.40625 C 1.332031 -6.0625 1.191406 -5.703125 1.078125 -5.328125 C 1.054688 -5.253906 1.0625 -5.171875 1.09375 -5.078125 C 1.125 -4.992188 1.148438 -4.90625 1.171875 -4.8125 Z M 1.171875 -4.8125 "/></g></g><g style="fill:#000000;fill-opacity:1;"><g transform="translate(114.237695, 22.510867)"><path style="stroke:none" d="M 5.359375 -3 C 5.203125 -3.039062 5.082031 -3.15625 5 -3.34375 C 4.925781 -3.539062 4.882812 -3.753906 4.875 -3.984375 C 4.863281 -4.222656 4.890625 -4.390625 4.953125 -4.484375 C 5.398438 -5.304688 5.71875 -5.921875 5.90625 -6.328125 C 6.101562 -6.734375 6.253906 -7.050781 6.359375 -7.28125 C 6.472656 -7.519531 6.601562 -7.773438 6.75 -8.046875 C 6.894531 -8.316406 7.125 -8.722656 7.4375 -9.265625 C 7.507812 -9.378906 7.492188 -9.46875 7.390625 -9.53125 C 7.285156 -9.601562 7.144531 -9.613281 6.96875 -9.5625 C 6.300781 -9.132812 5.601562 -8.679688 4.875 -8.203125 C 4.144531 -7.722656 3.472656 -7.242188 2.859375 -6.765625 C 2.609375 -6.566406 2.347656 -6.375 2.078125 -6.1875 C 1.816406 -6.007812 1.582031 -5.78125 1.375 -5.5 C 1.175781 -5.226562 1 -4.910156 0.84375 -4.546875 C 0.6875 -4.179688 0.472656 -3.890625 0.203125 -3.671875 C -0.00390625 -3.515625 -0.222656 -3.472656 -0.453125 -3.546875 C -0.691406 -3.628906 -0.832031 -3.707031 -0.875 -3.78125 C -1.007812 -4 -1.054688 -4.25 -1.015625 -4.53125 C -0.984375 -4.8125 -0.914062 -5.078125 -0.8125 -5.328125 C -0.675781 -5.617188 -0.519531 -5.898438 -0.34375 -6.171875 C -0.175781 -6.441406 -0.0234375 -6.71875 0.109375 -7 C 0.347656 -7.457031 0.625 -7.894531 0.9375 -8.3125 C 1.257812 -8.738281 1.578125 -9.164062 1.890625 -9.59375 C 2.222656 -10.019531 2.53125 -10.460938 2.8125 -10.921875 C 3.09375 -11.390625 3.367188 -11.859375 3.640625 -12.328125 C 3.796875 -12.484375 3.9375 -12.5625 4.0625 -12.5625 C 4.1875 -12.5625 4.347656 -12.492188 4.546875 -12.359375 C 4.753906 -12.222656 4.832031 -12.03125 4.78125 -11.78125 C 4.738281 -11.539062 4.628906 -11.296875 4.453125 -11.046875 C 4.148438 -10.617188 3.851562 -10.1875 3.5625 -9.75 C 3.269531 -9.3125 2.96875 -8.867188 2.65625 -8.421875 C 2.519531 -8.222656 2.460938 -8.097656 2.484375 -8.046875 C 2.515625 -8.003906 2.53125 -7.914062 2.53125 -7.78125 C 2.632812 -7.78125 2.691406 -7.789062 2.703125 -7.8125 C 2.878906 -7.925781 3.054688 -8.039062 3.234375 -8.15625 C 3.410156 -8.269531 3.578125 -8.394531 3.734375 -8.53125 C 4.296875 -9 4.875 -9.425781 5.46875 -9.8125 C 6.070312 -10.207031 6.675781 -10.585938 7.28125 -10.953125 C 7.4375 -11.054688 7.613281 -11.160156 7.8125 -11.265625 C 8.019531 -11.367188 8.210938 -11.453125 8.390625 -11.515625 C 8.609375 -11.566406 8.847656 -11.566406 9.109375 -11.515625 C 9.367188 -11.472656 9.597656 -11.429688 9.796875 -11.390625 C 9.828125 -11.367188 9.875 -11.347656 9.9375 -11.328125 C 10 -11.316406 10.035156 -11.28125 10.046875 -11.21875 C 10.046875 -11.175781 10.039062 -11.140625 10.03125 -11.109375 C 10.007812 -11.023438 9.976562 -10.953125 9.9375 -10.890625 C 9.894531 -10.835938 9.859375 -10.78125 9.828125 -10.71875 C 9.703125 -10.550781 9.578125 -10.378906 9.453125 -10.203125 C 9.328125 -10.023438 9.21875 -9.835938 9.125 -9.640625 C 9.039062 -9.523438 8.972656 -9.390625 8.921875 -9.234375 C 8.878906 -9.078125 8.820312 -8.921875 8.75 -8.765625 L 8.09375 -7.609375 L 7.484375 -6.53125 C 7.429688 -6.394531 7.367188 -6.257812 7.296875 -6.125 C 7.234375 -6 7.171875 -5.867188 7.109375 -5.734375 C 7.035156 -5.546875 7.078125 -5.457031 7.234375 -5.46875 C 7.398438 -5.488281 7.523438 -5.519531 7.609375 -5.5625 C 8.535156 -6.03125 9.414062 -6.59375 10.25 -7.25 C 11.09375 -7.914062 11.96875 -8.488281 12.875 -8.96875 C 13 -9.03125 13.128906 -9.101562 13.265625 -9.1875 C 13.398438 -9.28125 13.492188 -9.304688 13.546875 -9.265625 C 13.765625 -9.128906 13.820312 -8.925781 13.71875 -8.65625 C 13.625 -8.382812 13.472656 -8.171875 13.265625 -8.015625 C 13.222656 -7.992188 13.039062 -7.859375 12.71875 -7.609375 C 12.394531 -7.367188 12.003906 -7.085938 11.546875 -6.765625 C 11.097656 -6.453125 10.65625 -6.140625 10.21875 -5.828125 C 9.78125 -5.515625 9.425781 -5.269531 9.15625 -5.09375 C 8.53125 -4.664062 7.941406 -4.242188 7.390625 -3.828125 C 6.835938 -3.410156 6.160156 -3.132812 5.359375 -3 Z M 5.359375 -3 "/></g></g><g style="fill:#000000;fill-opacity:1;"><g transform="translate(125.653874, 22.510867)"><path style="stroke:none" d=""/></g></g><g style="fill:#8b61c2;fill-opacity:1;"><g transform="translate(135.26597, 22.510867)"><path style="stroke:none" d="M 6.4375 -0.46875 C 6.007812 -0.695312 5.695312 -1.015625 5.5 -1.421875 C 5.363281 -1.734375 5.210938 -2.046875 5.046875 -2.359375 C 4.890625 -2.671875 4.734375 -2.984375 4.578125 -3.296875 C 4.460938 -3.523438 4.359375 -3.757812 4.265625 -4 C 4.179688 -4.25 4.09375 -4.488281 4 -4.71875 L 3.5 -5.9375 C 3.414062 -6.113281 3.34375 -6.300781 3.28125 -6.5 C 3.226562 -6.707031 3.132812 -6.878906 3 -7.015625 C 2.125 -6.222656 1.453125 -5.273438 0.984375 -4.171875 C 0.972656 -4.128906 0.945312 -4.085938 0.90625 -4.046875 L 0.8125 -4.046875 C 0.425781 -4.148438 0.0664062 -4.363281 -0.265625 -4.6875 C -0.472656 -4.945312 -0.570312 -5.207031 -0.5625 -5.46875 C -0.550781 -5.726562 -0.488281 -5.992188 -0.375 -6.265625 C -0.21875 -6.597656 -0.0625 -6.921875 0.09375 -7.234375 C 0.257812 -7.554688 0.441406 -7.875 0.640625 -8.1875 L 1.25 -9.125 C 1.40625 -9.332031 1.546875 -9.550781 1.671875 -9.78125 C 1.796875 -10.019531 1.925781 -10.253906 2.0625 -10.484375 L 3.5 -13 C 3.707031 -13.40625 3.914062 -13.8125 4.125 -14.21875 C 4.34375 -14.625 4.570312 -15.03125 4.8125 -15.4375 C 5.257812 -16.175781 5.703125 -16.90625 6.140625 -17.625 C 6.578125 -18.34375 7.007812 -19.0625 7.4375 -19.78125 C 7.507812 -19.957031 7.613281 -20.125 7.75 -20.28125 C 7.976562 -20.53125 8.234375 -20.585938 8.515625 -20.453125 C 8.566406 -20.429688 8.617188 -20.394531 8.671875 -20.34375 C 8.722656 -20.300781 8.765625 -20.257812 8.796875 -20.21875 C 9.015625 -20.0625 9.128906 -19.914062 9.140625 -19.78125 C 9.160156 -19.644531 9.078125 -19.5 8.890625 -19.34375 C 8.359375 -18.882812 7.925781 -18.351562 7.59375 -17.75 C 7.269531 -17.144531 6.941406 -16.550781 6.609375 -15.96875 L 3.703125 -10.984375 C 3.566406 -10.753906 3.4375 -10.519531 3.3125 -10.28125 C 3.1875 -10.050781 3.101562 -9.789062 3.0625 -9.5 C 3.039062 -9.34375 2.960938 -9.179688 2.828125 -9.015625 C 2.691406 -8.847656 2.578125 -8.707031 2.484375 -8.59375 C 2.335938 -8.4375 2.191406 -8.28125 2.046875 -8.125 C 1.898438 -7.96875 1.78125 -7.796875 1.6875 -7.609375 C 1.644531 -7.523438 1.632812 -7.472656 1.65625 -7.453125 L 1.75 -7.40625 C 1.882812 -7.40625 2.019531 -7.488281 2.15625 -7.65625 C 2.425781 -7.96875 2.703125 -8.300781 2.984375 -8.65625 C 3.265625 -9.019531 3.582031 -9.320312 3.9375 -9.5625 C 4.09375 -9.65625 4.253906 -9.75 4.421875 -9.84375 C 4.597656 -9.945312 4.765625 -10.054688 4.921875 -10.171875 C 5.140625 -10.285156 5.347656 -10.398438 5.546875 -10.515625 C 5.753906 -10.628906 5.960938 -10.75 6.171875 -10.875 C 6.503906 -11.0625 6.894531 -11.207031 7.34375 -11.3125 C 7.476562 -11.34375 7.613281 -11.332031 7.75 -11.28125 C 7.882812 -11.238281 8.019531 -11.195312 8.15625 -11.15625 C 8.238281 -11.132812 8.304688 -11.09375 8.359375 -11.03125 C 8.421875 -10.976562 8.488281 -10.9375 8.5625 -10.90625 C 8.644531 -10.820312 8.742188 -10.78125 8.859375 -10.78125 C 8.859375 -10.644531 8.859375 -10.539062 8.859375 -10.46875 C 8.859375 -10.40625 8.8125 -10.328125 8.71875 -10.234375 C 8.59375 -10.109375 8.472656 -10.046875 8.359375 -10.046875 C 8.265625 -10.046875 8.160156 -10.0625 8.046875 -10.09375 C 7.929688 -10.125 7.820312 -10.140625 7.71875 -10.140625 C 7.507812 -10.140625 7.296875 -10.109375 7.078125 -10.046875 C 5.953125 -9.796875 5.03125 -9.242188 4.3125 -8.390625 C 4.132812 -8.191406 4.066406 -8.007812 4.109375 -7.84375 C 4.148438 -7.6875 4.207031 -7.488281 4.28125 -7.25 C 4.476562 -6.726562 4.664062 -6.203125 4.84375 -5.671875 C 5.03125 -5.148438 5.222656 -4.628906 5.421875 -4.109375 C 5.597656 -3.679688 5.789062 -3.265625 6 -2.859375 C 6.21875 -2.453125 6.421875 -2.035156 6.609375 -1.609375 C 6.734375 -1.328125 6.820312 -1.050781 6.875 -0.78125 C 6.894531 -0.644531 6.851562 -0.539062 6.75 -0.46875 C 6.65625 -0.40625 6.550781 -0.40625 6.4375 -0.46875 Z M 6.4375 -0.46875 "/></g></g><g style="fill:#000000;fill-opacity:1;"><g transform="translate(142.671467, 22.510867)"><path style="stroke:none" d="M 5.5 -13.46875 C 5.332031 -13.207031 5.148438 -13.207031 4.953125 -13.46875 C 4.816406 -13.625 4.75 -13.78125 4.75 -13.9375 C 4.75 -14.101562 4.757812 -14.273438 4.78125 -14.453125 C 4.800781 -14.535156 4.820312 -14.601562 4.84375 -14.65625 C 4.875 -14.71875 4.898438 -14.773438 4.921875 -14.828125 C 5.160156 -15.160156 5.390625 -15.5 5.609375 -15.84375 C 5.828125 -16.195312 6.054688 -16.539062 6.296875 -16.875 C 6.429688 -17.050781 6.601562 -17.1875 6.8125 -17.28125 C 6.988281 -17.375 7.140625 -17.410156 7.265625 -17.390625 C 7.390625 -17.378906 7.53125 -17.300781 7.6875 -17.15625 C 8.082031 -16.8125 8.265625 -16.5625 8.234375 -16.40625 C 8.203125 -16.25 7.960938 -16.054688 7.515625 -15.828125 C 7.109375 -15.628906 6.757812 -15.304688 6.46875 -14.859375 Z M 0.703125 -3.296875 C 0.253906 -3.160156 -0.101562 -3.238281 -0.375 -3.53125 C -0.644531 -3.820312 -0.804688 -4.191406 -0.859375 -4.640625 C -0.910156 -5.097656 -0.847656 -5.492188 -0.671875 -5.828125 C -0.378906 -6.367188 -0.0703125 -6.90625 0.25 -7.4375 C 0.582031 -7.976562 0.9375 -8.488281 1.3125 -8.96875 C 1.445312 -9.164062 1.628906 -9.453125 1.859375 -9.828125 C 2.097656 -10.210938 2.351562 -10.5625 2.625 -10.875 C 2.894531 -11.195312 3.15625 -11.367188 3.40625 -11.390625 C 3.5625 -11.429688 3.796875 -11.414062 4.109375 -11.34375 C 4.421875 -11.28125 4.578125 -11.160156 4.578125 -10.984375 C 4.578125 -10.910156 4.457031 -10.796875 4.21875 -10.640625 C 3.988281 -10.484375 3.84375 -10.375 3.78125 -10.3125 C 3.4375 -9.96875 3.113281 -9.582031 2.8125 -9.15625 C 2.507812 -8.738281 2.222656 -8.328125 1.953125 -7.921875 C 1.796875 -7.648438 1.625 -7.382812 1.4375 -7.125 C 1.257812 -6.863281 1.09375 -6.597656 0.9375 -6.328125 C 0.851562 -6.191406 0.773438 -6.046875 0.703125 -5.890625 C 0.640625 -5.734375 0.585938 -5.578125 0.546875 -5.421875 C 0.535156 -5.285156 0.53125 -5.128906 0.53125 -4.953125 C 0.539062 -4.773438 0.664062 -4.753906 0.90625 -4.890625 C 1.238281 -5.109375 1.566406 -5.316406 1.890625 -5.515625 C 2.222656 -5.722656 2.546875 -5.9375 2.859375 -6.15625 C 3.179688 -6.363281 3.578125 -6.617188 4.046875 -6.921875 C 4.515625 -7.222656 4.976562 -7.523438 5.4375 -7.828125 C 5.894531 -8.128906 6.273438 -8.378906 6.578125 -8.578125 C 6.890625 -8.785156 7.054688 -8.898438 7.078125 -8.921875 C 7.179688 -8.972656 7.300781 -9.035156 7.4375 -9.109375 C 7.582031 -9.191406 7.6875 -9.210938 7.75 -9.171875 C 7.96875 -9.054688 8.023438 -8.863281 7.921875 -8.59375 C 7.828125 -8.320312 7.671875 -8.109375 7.453125 -7.953125 C 7.421875 -7.929688 7.242188 -7.800781 6.921875 -7.5625 C 6.597656 -7.320312 6.203125 -7.039062 5.734375 -6.71875 C 5.273438 -6.394531 4.828125 -6.078125 4.390625 -5.765625 C 3.953125 -5.453125 3.597656 -5.210938 3.328125 -5.046875 C 2.992188 -4.785156 2.65625 -4.535156 2.3125 -4.296875 C 1.976562 -4.054688 1.644531 -3.816406 1.3125 -3.578125 C 1.226562 -3.503906 1.128906 -3.445312 1.015625 -3.40625 C 0.898438 -3.363281 0.796875 -3.328125 0.703125 -3.296875 Z M 0.703125 -3.296875 "/></g></g><g style="fill:#000000;fill-opacity:1;"><g transform="translate(148.554292, 22.510867)"><path style="stroke:none" d="M 0.609375 -3.296875 C 0.359375 -3.210938 0.109375 -3.257812 -0.140625 -3.4375 C -0.398438 -3.613281 -0.601562 -3.800781 -0.75 -4 C -0.789062 -4.050781 -0.832031 -4.132812 -0.875 -4.25 C -0.875 -4.363281 -0.863281 -4.460938 -0.84375 -4.546875 C -0.644531 -5.304688 -0.363281 -6.039062 0 -6.75 C 0.363281 -7.457031 0.753906 -8.140625 1.171875 -8.796875 C 1.441406 -9.242188 1.710938 -9.675781 1.984375 -10.09375 C 2.253906 -10.507812 2.523438 -10.929688 2.796875 -11.359375 C 2.859375 -11.460938 2.992188 -11.660156 3.203125 -11.953125 C 3.421875 -12.242188 3.628906 -12.539062 3.828125 -12.84375 C 4.035156 -13.15625 4.164062 -13.390625 4.21875 -13.546875 C 4.238281 -13.585938 4.25 -13.644531 4.25 -13.71875 C 4.21875 -13.851562 4.132812 -13.90625 4 -13.875 C 3.851562 -13.851562 3.734375 -13.820312 3.640625 -13.78125 C 3.546875 -13.738281 3.429688 -13.710938 3.296875 -13.703125 C 3.160156 -13.703125 2.972656 -13.679688 2.734375 -13.640625 C 2.503906 -13.597656 2.320312 -13.597656 2.1875 -13.640625 C 1.988281 -13.710938 1.925781 -13.882812 2 -14.15625 C 2.082031 -14.4375 2.234375 -14.582031 2.453125 -14.59375 C 2.722656 -14.632812 2.976562 -14.675781 3.21875 -14.71875 C 3.457031 -14.757812 3.707031 -14.785156 3.96875 -14.796875 C 4.21875 -14.835938 4.46875 -14.921875 4.71875 -15.046875 C 4.96875 -15.171875 5.191406 -15.300781 5.390625 -15.4375 C 5.484375 -15.539062 5.566406 -15.640625 5.640625 -15.734375 C 5.722656 -15.828125 5.796875 -15.925781 5.859375 -16.03125 C 6.054688 -16.34375 6.191406 -16.566406 6.265625 -16.703125 C 6.335938 -16.835938 6.40625 -16.945312 6.46875 -17.03125 C 6.53125 -17.113281 6.597656 -17.234375 6.671875 -17.390625 C 6.765625 -17.628906 6.890625 -17.796875 7.046875 -17.890625 C 7.203125 -17.984375 7.359375 -17.976562 7.515625 -17.875 C 7.671875 -17.769531 7.796875 -17.671875 7.890625 -17.578125 C 8.015625 -17.421875 8.0625 -17.257812 8.03125 -17.09375 C 8 -16.925781 7.9375 -16.765625 7.84375 -16.609375 C 7.757812 -16.492188 7.648438 -16.351562 7.515625 -16.1875 C 7.378906 -16.019531 7.300781 -15.859375 7.28125 -15.703125 C 7.257812 -15.546875 7.378906 -15.421875 7.640625 -15.328125 C 7.710938 -15.304688 7.78125 -15.296875 7.84375 -15.296875 C 7.914062 -15.296875 7.992188 -15.296875 8.078125 -15.296875 C 8.367188 -15.296875 8.660156 -15.265625 8.953125 -15.203125 C 9.242188 -15.148438 9.492188 -15.023438 9.703125 -14.828125 C 9.742188 -14.796875 9.765625 -14.757812 9.765625 -14.71875 C 9.765625 -14.675781 9.753906 -14.644531 9.734375 -14.625 L 9.640625 -14.484375 L 9.5 -14.21875 C 9.40625 -14.039062 9.296875 -13.9375 9.171875 -13.90625 C 9.140625 -13.882812 9.097656 -13.878906 9.046875 -13.890625 C 8.992188 -13.898438 8.953125 -13.90625 8.921875 -13.90625 C 8.609375 -13.9375 8.300781 -13.957031 8 -13.96875 C 7.695312 -13.976562 7.390625 -13.972656 7.078125 -13.953125 C 6.984375 -13.953125 6.882812 -13.953125 6.78125 -13.953125 C 6.6875 -13.953125 6.59375 -13.9375 6.5 -13.90625 C 6.269531 -13.820312 6.085938 -13.695312 5.953125 -13.53125 C 5.828125 -13.363281 5.6875 -13.207031 5.53125 -13.0625 C 5.375 -12.882812 5.222656 -12.710938 5.078125 -12.546875 C 4.929688 -12.378906 4.789062 -12.195312 4.65625 -12 C 4.5 -11.769531 4.347656 -11.53125 4.203125 -11.28125 C 4.066406 -11.039062 3.921875 -10.796875 3.765625 -10.546875 C 3.628906 -10.335938 3.5 -10.113281 3.375 -9.875 C 3.257812 -9.644531 3.125 -9.421875 2.96875 -9.203125 C 2.582031 -8.609375 2.253906 -7.972656 1.984375 -7.296875 C 1.710938 -6.628906 1.410156 -5.972656 1.078125 -5.328125 C 1.054688 -5.304688 1.046875 -5.28125 1.046875 -5.25 C 1.046875 -5.207031 1.066406 -5.1875 1.109375 -5.1875 C 1.179688 -5.164062 1.25 -5.171875 1.3125 -5.203125 C 1.382812 -5.234375 1.453125 -5.265625 1.515625 -5.296875 C 2.390625 -5.921875 3.285156 -6.535156 4.203125 -7.140625 C 5.128906 -7.742188 6.050781 -8.328125 6.96875 -8.890625 L 7 -8.921875 C 7.09375 -8.972656 7.207031 -9.035156 7.34375 -9.109375 C 7.476562 -9.191406 7.578125 -9.210938 7.640625 -9.171875 C 7.847656 -9.054688 7.898438 -8.863281 7.796875 -8.59375 C 7.703125 -8.320312 7.550781 -8.109375 7.34375 -7.953125 C 7.320312 -7.929688 7.144531 -7.800781 6.8125 -7.5625 C 6.488281 -7.320312 6.097656 -7.039062 5.640625 -6.71875 C 5.179688 -6.394531 4.734375 -6.078125 4.296875 -5.765625 C 3.859375 -5.453125 3.503906 -5.210938 3.234375 -5.046875 C 2.878906 -4.785156 2.535156 -4.535156 2.203125 -4.296875 C 1.878906 -4.054688 1.550781 -3.816406 1.21875 -3.578125 C 1.050781 -3.441406 0.847656 -3.347656 0.609375 -3.296875 Z M 0.609375 -3.296875 "/></g></g></g></svg>